<?xml version="1.0" encoding="UTF-8"?>
<svg id="About" xmlns="http://www.w3.org/2000/svg" viewBox="0 0 200 200">
  <path d="m96.92,177.27c.69.07,1.37.22,2.06.19,13.6-.55,27.05-1.82,39.62-7.72,2.09-.98,4.31-1.69,6.51-2.42.85-.28,1.79-.27,2.69-.4.12.18.24.35.36.53-2.01,2.57-4.01,5.15-6.02,7.72.16.19.33.39.49.58.71-.18,1.5-.21,2.11-.57,2.71-1.6,5.37-3.27,8.03-4.95,2.46-1.55,4.88-3.17,7.35-4.71.62-.39,1.36-.58,2.04-.86.11.12.22.24.33.35-.55.92-1.1,1.84-1.72,2.87.43.29.9.59,1.51,1-1.38,1.53-2.67,2.98-3.97,4.42.06.11.13.23.19.34,1.24-.56,2.47-1.11,3.71-1.67.12.16.25.32.37.48-.59.77-1.07,1.65-1.78,2.29-11.87,10.75-25.73,17.56-41.56,19.79-32.45,4.56-60.56-5.12-84.35-27.25-15.61-14.52-25.1-32.5-28.15-53.76-2.44-17.01-1.07-33.56,5.41-49.57,3.95-9.75,9.77-18.36,16.56-26.3,7.2-8.43,15.64-15.44,25.28-20.98,10.06-5.78,20.79-9.6,32.26-11.31,16.87-2.53,33.17-.4,48.89,6.21,11.15,4.69,21.55,10.64,30.4,18.97,6.62,6.24,12.05,13.47,16.42,21.45,5.38,9.82,9.04,20.28,10.93,31.32,1.79,10.45,2.01,20.92.5,31.44-1.79,12.48-5.96,24.07-12.76,34.68-1.63,2.55-3.52,4.94-5.4,7.32-.4.51-1.27.65-1.92.96-.13-.72-.55-1.56-.32-2.14.81-2.09,1.51-4.34,2.85-6.08,7.57-9.91,11.06-21.34,12.65-33.46,1.53-11.72,1.04-23.39-1.33-34.97-.06-.29-.02-.65-.17-.86-.22-.29-.58-.48-.88-.71-.17.38-.54.81-.47,1.13,1.45,5.98,1.21,12.06,1.08,18.12-.19,9-1.06,17.95-3.92,26.54-.81,2.43-2.23,4.68-3.53,6.92-.39.67-1.35,1-2.05,1.49-.21-.1-.42-.2-.63-.3.23-1.13.31-2.33.72-3.39,5.86-15.09,7.22-30.76,4.32-46.48-2.57-13.93-9.51-26.17-18.19-37.33-2.06-2.65-3.62-3.63-5.9-4.36,2.26,2.67,4.54,5.13,6.53,7.8,2.16,2.9,4.17,5.93,6.03,9.03.7,1.16.8,2.68,1.17,4.04-.24.11-.47.22-.71.33-.63-.8-1.33-1.56-1.87-2.42-4.37-6.85-9.3-13.24-15.44-18.62-12.35-10.79-26.49-17.58-42.84-19.91-32.49-4.62-64.65,13.99-78.37,40.78-6.21,12.12-8.88,25.02-8.15,38.62.9,16.94,6.46,32.17,16.85,45.59,5.04,6.5,11.66,11.14,18.54,15.46,11.53,7.24,24.32,9.88,37.69,10.51.95.04,1.92.05,2.83.29.47.13,1.03.66,1.16,1.12.08.28-.52.87-.93,1.14-.49.31-1.11.41-1.66.62-.49.18-.96.39-1.44.58,0,.15.01.3.02.46Zm54.88-141.46c-2.35-3.91-5.7-6.74-9.42-9.13-10.87-6.96-22.75-10.69-35.66-10.87-3.6-.05-7.22.39-10.82.71-.45.04-.84.75-1.26,1.15.5.18.99.49,1.51.53,1.12.09,2.26-.02,3.39.07,6.15.51,12.37.64,18.44,1.67,9.59,1.63,18.43,5.39,26.42,11.03,2.41,1.7,4.94,3.23,7.41,4.83Z"/>
  <path d="m95.1,149.41c.27-6.12.41-20.15.41-28.59v-6.4c0-7.49-.14-11.71-.41-17.15l-11.16-1.22v-4.77l20.55-8.17,2.04,1.36-.41,18.38v17.97c0,8.44.14,22.46.41,28.59h-11.43Zm20.96-4.76v4.76h-31.31v-4.76l14.97-2.72h2.72l13.61,2.72Zm-24.37-85.48c0-5.17,3.95-8.58,8.98-8.58s8.98,3.4,8.98,8.58-3.95,8.57-8.98,8.57-8.98-3.54-8.98-8.57Z"/>
</svg>