<?xml version="1.0" encoding="UTF-8"?>
<svg id="Layer_6" data-name="Layer 6" xmlns="http://www.w3.org/2000/svg" viewBox="0 0 200 200">
  <defs>
    <style>
      .cls-1 {
        fill: none;
        stroke: #000;
        stroke-miterlimit: 10;
        stroke-width: 1.52px;
      }

      .cls-2 {
        fill: #eb9e00;
      }

      .cls-3 {
        fill: #ffd277;
      }

      .cls-4 {
        fill: #fbead9;
      }

      .cls-5 {
        fill: #ace5e3;
      }

      .cls-6 {
        fill: #61b6af;
      }
    </style>
  </defs>
  <path class="cls-5" d="m36.98,101.64s-11.81,8.46-13.97,11.7c-2.16,3.24-2.34,15.13,1.08,17.65s97.41,45.2,100.83,48.26c3.42,3.06,4.5,1.08,7.92-2.52,3.42-3.6,58.16-60.32,61.04-62.84,2.88-2.52.54-7.2-3.06-3.42s-57.44,59.78-59.42,61.76c-1.98,1.98-4.32,3.06-5.04-4.14-.72-7.2,0-15.85,3.06-18.55s58.88-51.14,61.22-54.74,3.6-6.84-.72-6.84-11.88-1.46-11.88-1.46l-141.06,15.15Z"/>
  <path class="cls-4" d="m189.86,95.71l-58.44,52.08s-4.16,3.46-4.79,7.96c-.63,4.5-.81,21.79,3.6,17.29,4.41-4.5,60.59-62.57,60.59-62.57,0,0-.3-11.15-.96-14.76Z"/>
  <path class="cls-6" d="m192.35,88.69s1.11,2.22-.5,4.42c-1.61,2.2-33.42,31.17-37.38,34.59-3.96,3.42-23.89,20.37-25.04,21.84-1.15,1.47-3.23,6.94-3.26,10.99-.03,4.05.27,16.14,3.77,12.87,3.51-3.27,61.44-63.45,61.44-63.45,0,0,2.95-1.74,3.67.47s-2.41,4.66-4.16,6.42-62.54,63.84-62.54,63.84c0,0-3.92-1.9-5.25-9.99-1.33-8.09-1.98-19.98-.16-21.64,1.81-1.66,62.61-53.84,62.61-53.84,0,0,5.08-6.32,6.8-6.51Z"/>
  <path class="cls-3" d="m76.54,21.46c-4.85,3.47-52.1,34.09-61.7,37.45s-12.24,12.48-8.16,20.17c4.8,5.28,62.9,45.14,72.02,52.58,9.12,7.44,17.29,12.24,19.21,14.89,1.92,2.64,5.04.72,8.16-2.16,3.12-2.88,69.38-49.94,71.78-51.14s3.84-5.52,0-4.08-69.86,47.78-72.02,49.46-4.56,2.4-4.08-2.88c.48-5.28.24-13.3,5.76-18.06,5.52-4.75,66.26-39.32,70.1-43.16s5.28-6.24-.48-7.68-55.94-22.57-68.42-30.01-23.29-12.48-24.97-15.37-2.97-3.03-7.2,0Z"/>
  <path class="cls-4" d="m177.62,74.52l-70.1,43.16s-4.88,5.15-5.08,10.58c-.2,5.43-2.84,14.8,3.4,10.36,6.24-4.44,72.02-49.46,72.02-49.46l-.24-14.64Z"/>
  <path class="cls-2" d="m180.99,69.59s-3.55-.55-11.53,4.92c-7.98,5.47-41.97,26.49-47.63,28.96s-18.05,6.99-20.74,12.18-3.26,18.4-2.43,22.84,2.43,9.18,2.43,9.18l32.54-23.35,44.73-31.38s2.65-3.06,1.62-3.78-2.65,0-3.37.6-70.28,48.74-70.28,48.74c0,0-4.44,3.96-4.56-1.26s1.62-15.49,4.38-18.13c2.76-2.64,61.91-38.26,61.91-38.26,0,0,13.43-7.72,12.94-11.26Z"/>
  <path class="cls-4" d="m48.45,51.59c4.43-2.42,27.01-15.25,29.05-18.61s5.28-2.76,7.8,0,7.44,6.24,8.76,6.48,1.8,2.16-2.28,4.32-31.21,20.05-33.13,21.97-4.2,2.52-7.44,0-9-6.48-10.32-7.08.14-3.02,7.56-7.08Z"/>
  <path class="cls-4" d="m80.62,133.63s-1.56-8.34,0-13.5,3.96-7.44,6.24-6.12,3.6,2.28,4.32,2.64-.96,2.88-2.16,5.88-1.72,13.38-.98,16.23c-3.75-2.76-7.42-5.14-7.42-5.14Z"/>
  <path class="cls-4" d="m104.21,168.87s-.78-7.45,0-11.53,1.26-6,3.55-5.28c2.28.72,3.48.96,4.44,1.44s1.56.72.6,3.84c-.96,3.12-.61,11.76.17,15.72-2.85-1.37-8.76-4.2-8.76-4.2Z"/>
  <path class="cls-1" d="m76.54,21.46c-4.85,3.47-52.1,34.09-61.7,37.45s-12.24,12.48-8.16,20.17c4.8,5.28,62.9,45.14,72.02,52.58,9.12,7.44,17.29,12.24,19.21,14.89,1.92,2.64,5.04.72,8.16-2.16,3.12-2.88,69.38-49.94,71.78-51.14s3.84-5.52,0-4.08-69.86,47.78-72.02,49.46-4.56,2.4-4.08-2.88c.48-5.28.24-13.3,5.76-18.06,5.52-4.75,66.26-39.32,70.1-43.16s5.28-6.24-.48-7.68-55.94-22.57-68.42-30.01-23.29-12.48-24.97-15.37-2.97-3.03-7.2,0Z"/>
  <path class="cls-1" d="m11.15,60.69s88.2,46.25,92.28,51.62"/>
  <path class="cls-1" d="m180.99,69.59s-3.49-.12-6.97,2.4c-3.48,2.52-45.38,28.57-53.42,32.05-8.04,3.48-17.89,7.08-19.93,12.48s-3,14.28-2.28,20.05,1.66,8.98,2.69,11.09"/>
  <path class="cls-1" d="m36.98,101.64s-11.81,8.46-13.97,11.7c-2.16,3.24-2.34,15.13,1.08,17.65s97.41,45.2,100.83,48.26c3.42,3.06,4.5,1.08,7.92-2.52,3.42-3.6,58.16-60.32,61.04-62.84,2.88-2.52.54-7.2-3.06-3.42s-57.44,59.78-59.42,61.76c-1.98,1.98-4.32,3.06-5.04-4.14-.72-7.2,0-15.85,3.06-18.55s58.88-51.14,61.22-54.74,3.6-6.84-.72-6.84-11.88-1.46-11.88-1.46"/>
  <line class="cls-1" x1="177.62" y1="74.52" x2="177.86" y2="89.16"/>
  <line class="cls-1" x1="189.86" y1="95.71" x2="191.38" y2="109.94"/>
  <path class="cls-1" d="m192.35,88.69s-2.07,1.07-5.31,4.94-26.11,23.41-32.77,28.36c-6.66,4.95-27.1,23.24-29.98,25.8s-2.34,5.62-2.34,8.86.81,15.13,2.07,18.01c1.26,2.88,2.43,5.09,3.87,6.1"/>
  <line class="cls-1" x1="123.26" y1="148.92" x2="109.46" y2="141.77"/>
  <path class="cls-1" d="m74.25,128.26s-47.42-18-49.4-16.97"/>
</svg>