<?xml version="1.0" encoding="UTF-8"?>
<svg id="Layer_7" data-name="Layer 7" xmlns="http://www.w3.org/2000/svg" viewBox="0 0 200 200">
  <defs>
    <style>
      .cls-1 {
        stroke: #000;
        stroke-linecap: round;
        stroke-linejoin: round;
      }
    </style>
  </defs>
  <path class="cls-1" d="m63.64,110.57c-7.52.82-18.21,1.41-28.08,1.41-.35,4.11-.7,8.69-.7,10.93,0,18.8,12.45,20.32,23.38,20.32,18.45,0,27.61-5.29,27.61-16.1,0-6.11-3.29-13.75-9.63-21.62,2.23-.7,5.64-2,7.52-2.94,7.17,9.28,10.81,18.21,10.81,25.85,0,19.74-22.09,22.67-36.3,22.67-11.28,0-31.49-.82-31.49-28.2,0-5.29.47-9.16.71-11.16-9.87-.35-25.73-.94-25.73-13.04,0-5.29,3.05-10.22,9.99-15.16l6.23,3.64c-5.17,3.17-8.22,7.05-8.22,10.22,0,6.23,9.4,6.46,18.33,6.7.82-7.87,1.88-17.15,2.94-26.32-8.46-.94-18.21-3.29-24.67-6.46l2.11-7.64c6.46,3.05,14.69,5.29,23.5,6.34.94-7.4,1.76-14.92,2.58-21.15l12.22,1.53c-.35,1.41-1.64,2.23-3.76,2.35-.82,4.93-1.76,11.4-2.7,18.09,3.41.24,7.05.35,10.81.35,4.46,0,9.05-.12,13.28-.47l-.35,7.75c-3.52.23-7.52.35-11.51.35-4.58,0-9.16-.12-13.28-.35-1.17,8.81-2.23,17.86-3.05,25.85,9.28,0,19.62-.59,27.37-1.65l.12,7.87Z"/>
  <path class="cls-1" d="m132.96,51.6c-.24,1.41-1.29,2.23-3.64,2.58-.94,13.63-2.12,44.76-2.12,62.15s8.69,25.96,23.5,25.96,28.9-7.17,42.29-22.32c1.17,1.88,3.88,5.64,5.29,6.93-13.75,15.63-30.43,23.85-47.7,23.85-21.38,0-32.31-12.34-32.31-34.54,0-14.8,1.06-51.22,1.88-65.67l12.81,1.06Zm31.84,12.34c5.52,4.23,12.34,11.28,15.98,16.21l-4.35,3.64c-3.52-5.05-10.69-12.34-15.74-16.21l4.11-3.64Zm14.33-10.69c5.64,4.23,12.57,11.16,16.1,15.98l-4.46,3.76c-3.17-4.7-10.1-11.87-15.63-16.1l3.99-3.64Z"/>
</svg>