<?xml version="1.0" encoding="UTF-8"?>
<svg id="Home" xmlns="http://www.w3.org/2000/svg" viewBox="0 0 200 200">
  <defs>
    <style>
      .cls-1 {
        fill: #c90d1e;
      }

      .cls-2 {
        fill: #070707;
      }
    </style>
  </defs>
  <path class="cls-1" d="m182.77,114.06c0,20.95-7.78,40.08-20.61,54.66-13.61,0-37.4,0-62.16,0s-42.85,0-62.16,0c-12.83-14.58-20.61-33.71-20.61-54.65,0-45.71,37.06-82.77,82.77-82.77s82.77,37.06,82.77,82.77Z"/>
  <path class="cls-2" d="m191.85,161.23h-32.55c-2.97,0-4.16-.36-4.16-3.09v-23.88c0-2.97,1.9-4.16,4.04-4.16h5.47v-7.37h-9.5v-7.49h9.86c2.5,0,3.33-.24,5.23-1.9,1.9-1.66,3.33-5.11,1.9-5.11h-42.77v-7.96c0-2.02,2.02-1.78,3.92-1.78h17.7v-7.96h-21.5v-5.82c0-3.09,2.5-4.28,4.51-4.28h12c6.3,0,7.13-.83,8.32-2.02s3.68-5.11,2.02-5.11H43.68c-1.66,0,.83,3.92,2.02,5.11s2.02,2.02,8.32,2.02h12c2.02,0,4.51,1.19,4.51,4.28v5.82h-21.5v7.96h17.7c1.9,0,3.92-.24,3.92,1.78v7.96H27.87c-1.43,0,0,3.45,1.9,5.11,1.9,1.66,2.73,1.9,5.23,1.9h9.86v7.49h-9.5v7.37h5.47c2.14,0,4.04,1.19,4.04,4.16v23.88c0,2.73-1.19,3.09-4.16,3.09H8.15c-3.8,0-7.37,2.73-7.37,7.49h198.43c0-4.75-3.56-7.49-7.37-7.49Zm-114.07-81.27h18.89v10.57h-18.89v-10.57Zm-7.01,77.94c0,3.21-1.31,3.56-3.33,3.56h-12.71c-2.14,0-2.49-2.5-2.49-3.8v-27.86h12.24c4.28,0,6.3,2.08,6.3,4.69v23.41Zm0-34.69h-18.53v-7.96h14.49c2.02,0,4.04,1.9,4.04,3.56v4.4Zm51.46,35.41c0,2.02-.59,2.85-2.97,2.85h-38.51c-2.38,0-2.97-.83-2.97-2.85v-60.48h44.45v60.48Zm0-68.08h-18.89v-10.57h18.89v10.57Zm25.54,67.13c0,1.31-.36,3.8-2.49,3.8h-12.71c-2.02,0-3.33-.36-3.33-3.56v-23.41c0-2.61,2.02-4.69,6.3-4.69h12.24v27.86Zm0-34.46h-18.53v-4.4c0-1.66,2.02-3.56,4.04-3.56h14.49v7.96Z"/>
</svg>