<?xml version="1.0" encoding="UTF-8"?>
<svg id="Learn" xmlns="http://www.w3.org/2000/svg" viewBox="0 0 200 200">
  <defs>
    <style>
      .cls-1 {
        stroke: #535353;
      }

      .cls-1, .cls-2, .cls-3, .cls-4 {
        stroke-miterlimit: 10;
      }

      .cls-1, .cls-2, .cls-3, .cls-4, .cls-5, .cls-6 {
        fill: none;
        stroke-width: 1.1px;
      }

      .cls-1, .cls-2, .cls-5, .cls-6 {
        stroke-linecap: round;
      }

      .cls-2, .cls-5 {
        stroke: #fefefe;
      }

      .cls-3 {
        stroke: #070707;
      }

      .cls-4 {
        stroke: #000;
      }

      .cls-7 {
        fill: #0034d8;
      }

      .cls-8 {
        fill: #f2181c;
      }

      .cls-9 {
        fill: #eb9e00;
      }

      .cls-10 {
        fill: #ffb800;
      }

      .cls-11 {
        fill: #ffd277;
      }

      .cls-12 {
        fill: #ff8aa9;
      }

      .cls-13 {
        fill: #ff8368;
      }

      .cls-14 {
        fill: #bacb6e;
      }

      .cls-15 {
        fill: #dadada;
      }

      .cls-16 {
        fill: #ace5e3;
      }

      .cls-17 {
        fill: #5b5958;
      }

      .cls-18 {
        fill: #61b6af;
      }

      .cls-5, .cls-6 {
        stroke-linejoin: round;
      }

      .cls-6 {
        stroke: #e4c500;
      }
    </style>
  </defs>
  <path class="cls-11" d="m3.33,84.12s-3.18.85-1.72,3.86c2.07,3.03,52.59,74.29,52.59,74.29,0,0,2.16,1.81,3.08,1.12s3.35-3.69,4.25-4.28,28.82-10.89,36.43-12.44c7.61-1.55,23.35-3.7,26.81-4.06s5.22,1.23,7.01,1.67,3.64.31,5.38-.2,8-2.5,8.71-3.14,1.42-2.66,1.5-3.94c1.2-1.62,5.72-6,7.87-7.06s12.87-4.85,19.9-6.11,14.02-.49,15.8-.36,6.69,1.43,4.75-4.02c-.89-5.06-31.5-12.25-31.5-12.25L3.33,84.12Z"/>
  <path class="cls-15" d="m77.55,58.3s-9.29-4.28-34.85-1.85c-25.57,2.42-33.68,10.09-37.86,17.68-.86,1.32-2.48,7.72-1.5,10,1.81,2.58,51.33,73.96,51.33,73.96,0,0,27.07-10.27,28.95-10.97s26.93-8.47,33.71-8.89c6.78-.42,13.94-.63,15.59,2.51,3.44-1.45,6.8-2.62,8.72-2.62,1.39-3.39,5.02-9.95,9.37-11.82,4.35-1.87,26.03-9.28,44.69-6.84,1.51-2.64,4.53-7.67,2.05-8.98-2.85-3.36-62.64-72.32-62.64-72.32,0,0-21.9-1.6-36.06,3.41s-21.48,14.95-21.48,16.73Z"/>
  <path class="cls-16" d="m10.81,66.72l-3.36-5.81,9.82-10.17,15.8.64,3.72,5.75s-14.95.79-25.98,9.59Z"/>
  <path class="cls-10" d="m82.59,51.61s-2.95-4.82-3.29-5.39.57-1.74.92-2.4,2.88-5.1,3.05-5.45.31-.87,2.35-1,9.98-.87,10.64-.92,1.44.31,2.09,1,3.13,3.2,3.13,3.2c0,0-10.62,3.53-18.89,10.95Z"/>
  <path class="cls-13" d="m181.48,123.1l17.04,16.94-28.55,6.41-14.12-16.82s16.39-6.89,25.63-6.53Z"/>
  <line class="cls-2" x1="10.88" y1="59.85" x2="18.21" y2="52.41"/>
  <line class="cls-2" x1="22.02" y1="52.23" x2="31.27" y2="53.13"/>
  <path class="cls-18" d="m8.29,59.71s1.8.97,2.23,1.68.7,2.03,1.33,1.74,5.36-3.77,10.75-5.12c5.38-1.35,8.98-2.11,10.24-2.18s2.18.15,1.57,1.35c-1.83.54-16.3,2.42-23.69,9.26-1.48-2.48-3.38-5.67-3.38-5.67l.95-1.07Z"/>
  <path class="cls-9" d="m81.24,49.41s4.05-4.88,7.39-6.61,7.68-3.4,9.45-3.76,1.89.1,2.36.58.84,1.11.84,1.11c0,0-14.18,5.48-18.56,10.76-1.13-1.48-1.48-2.07-1.48-2.07Z"/>
  <polyline class="cls-5" points="158.79 128.31 170.92 143.11 192.37 138.14 177.53 123.46"/>
  <polyline class="cls-5" points="162.42 127.06 171.84 139.12 185.22 136.24 175.05 124.23"/>
  <path class="cls-17" d="m68.79,63.53s-6.41-1.31-11.57-1.31-16.22.92-24.65,2.88-16.94,8.63-16.94,8.63c-1.11.78-2.03,1.11-.98,2.42s2.03,2.74,2.75,2.65,12.49-3.56,14.84-4.28,15.19-3.79,18.03-4.45,8.78-1.31,12.71-1.31,6.15.26,6.8,0,.92-1.77,0-3.66l-.98-1.57Z"/>
  <path class="cls-17" d="m121.62,75.43c-3.1.09-9.59,2.48-11.73,3.56s-5.54,4.18-5.54,4.18l-9.37-13.18s7.8-5.93,11.68-6.54,5.14-1.05,6.41.78,8.37,9.5,8.37,9.5l.17,1.7Z"/>
  <path class="cls-1" d="m4.83,78.79l49.3,73.21s21.4-9.26,23.41-9.44,5.32-.96,6.45-1.92,22.58-7.06,27.46-7.15c4.88-.09,21.45.52,24.5,1.83s2.96-1.31,4.01-3.23,8.37-9.33,13.86-11.68,15.34-6.63,20.84-7.15,16.39-.54,17.53-.63,4.84.36,5.01.54"/>
  <path class="cls-1" d="m195.55,116.54c-1.26-.22-17.18-.7-19.44-.44s-9.46,2.01-13.47,3.71-9.9,3.31-11.46,4.53-8.76,7.26-10.24,9.82-.74,3.43-5.23,2.78-11.73-2.53-18.4-1.31-26.33,7.76-29.56,8.02-6.45.35-8.81.96-25,10.85-25,10.85L5.36,82.53"/>
  <path class="cls-1" d="m20.92,85.28s3.88-3.1,9.46-4.62,15.3-2.96,17.61-2.96"/>
  <path class="cls-1" d="m22.94,89.77s3.88-3.1,9.46-4.62c5.58-1.53,13.28-2.96,15.59-2.96"/>
  <path class="cls-1" d="m28.29,97.27s6.76-3.6,8.76-4.18,8.68-2.71,13.21-3.32"/>
  <path class="cls-1" d="m31.6,100.84s2.05-2.31,4.36-3.14,6.67-2.35,7.63-2.7,3.4-1.35,4.1-1.18"/>
  <path class="cls-1" d="m74.42,91.45s4.91-1.16,7.66-1.38,6.54-.39,7.89-.48"/>
  <path class="cls-1" d="m76.3,96.62s4.91-1.16,7.66-1.38,6.54-.39,7.89-.48"/>
  <path class="cls-1" d="m83.61,98.27s6.58-1.53,11.12-1.13"/>
  <path class="cls-1" d="m101.02,121.89s8.21-.72,14.09-.29"/>
  <path class="cls-1" d="m128.09,44.3s-8.83-.07-12.75.78-12.88,3.2-17,5.75-8.89,4.64-11.51,8.57"/>
  <path class="cls-1" d="m91.67,63.85s7-7,15.1-9.81,15.37-4.12,19.16-4.32"/>
  <path class="cls-1" d="m136.57,115.84s4.8-6.6,14.67-10.4c9.87-3.79,18.96-6.6,23.02-6.87"/>
  <path class="cls-1" d="m180.93,104.26s-10.92.46-14.25,1.37-14.84,5.62-16.67,6.74-8.37,5.75-9.35,7.98"/>
  <path class="cls-2" d="m73.28,87.2s7.24-3.18,11.94-3.07"/>
  <path class="cls-2" d="m33.34,107.21s11.77-7.63,13.6-5.19"/>
  <path class="cls-2" d="m35.83,110.39s8.15-4.49,8.59-4.71"/>
  <path class="cls-2" d="m105.97,86.11s7.37-4.88,8.98-5.54,5.19-1.22,5.89-1.09"/>
  <path class="cls-2" d="m108.17,88.98s6.69-4.21,8.31-4.86,4.45-1.07,5.14-.93"/>
  <path class="cls-2" d="m69.77,65.1c.92,1.9.65,3.4,0,3.66s-2.88,0-6.8,0-9.87.65-12.71,1.31-15.67,3.73-18.03,4.45-14.12,4.18-14.84,4.28-1.7-1.34-2.75-2.65-.13-1.63.98-2.42c0,0,8.5-6.67,16.94-8.63s19.49-2.88,24.65-2.88,11.57,1.31,11.57,1.31"/>
  <path class="cls-5" d="m121.62,75.43c-3.1.09-9.59,2.48-11.73,3.56s-5.54,4.18-5.54,4.18l-9.37-13.18s7.8-5.93,11.68-6.54,5.14-1.05,6.41.78,8.37,9.5,8.37,9.5"/>
  <path class="cls-4" d="m77.55,58.3s-4.84-3.79-33.35-1.96c-28.51,1.83-37.53,12.69-39.36,17.79,4.05,6.41,49.3,75.07,49.3,75.07,0,0,26.16-11.25,30.6-12.55s31.56-10.59,51.83-3.14c4.18-5.75,12.9-15.56,25.07-19.22,12.16-3.66,24.59-4.97,36.09-3.79-4.97-6.02-62.64-72.32-62.64-72.32,0,0-23.41-.52-31.91,1.96-8.5,2.48-21.84,9.68-25.63,18.18Z"/>
  <path class="cls-4" d="m4.83,74.12s-2.68,2.35-1.5,10c4.38,6.21,51.33,73.96,51.33,73.96,0,0,32.96-12.55,36.75-13.86s36.53-11.25,41.5-3.49c2.18-.87,3.49-1.92,8.72-2.62.96-3.66,5.23-10.9,12.9-13.43,7.67-2.53,26.32-6.89,41.15-5.23,1.57-2.27,4.73-8.75,2.05-8.98"/>
  <path class="cls-4" d="m195.68,119.46s1.57,3.57-1.31,4.1-10.03-2.09-22.84,1.05c-12.82,3.14-16.74,4.88-20.75,8.63s-3.4,3.57-3.57,5.06-.26,2.44-3.05,3.49-8.28,2.88-10.11,2.96-5.67-2.01-7.67-2.18-22.84,2.27-30.86,4.8c-8.02,2.53-29.47,9.59-32.17,10.72s-4.71,3.84-5.14,4.62-2.7,1.05-3.66,0S2.48,89.55,1.61,87.98s.04-3.71,1.72-3.86"/>
  <line class="cls-4" x1="77.55" y1="58.3" x2="136.57" y2="133.49"/>
  <path class="cls-3" d="m10.59,66.72s-2.88-5.29-3.14-5.81,8.3-8.83,9.06-9.55.52-.85,3.92-.82,11.48.65,11.97.65,1.05.2,1.77,1.44,2.63,4.42,2.63,4.42"/>
  <path class="cls-3" d="m82.59,51.61s-2.95-4.82-3.29-5.39.57-1.74.92-2.4,2.88-5.1,3.05-5.45.31-.87,2.35-1,9.98-.87,10.64-.92,1.44.31,2.09,1,3.13,3.2,3.13,3.2"/>
  <polyline class="cls-3" points="155.84 129.62 169.97 146.44 198.52 140.03 181.48 123.1"/>
  <path class="cls-5" d="m133.35,112.74s9.42-7.85,17.61-10.99,14.91-5.3,16.74-5.13"/>
  <path class="cls-8" d="m137.27,58.3c-1.48-1.57-4.53-2.57-7.24-2.66-2.7-.09-6.36-.26-6.89,0s-1.7.96-1.83,2.66c0,0-.87-.13-1.26.61-.39.74-1.44,3.62-1.44,5.27s.26,2.18,1.05,3.18c.78,1,21.45,29.16,21.45,29.16l21.62-7.37s-23.98-29.29-25.46-30.86Zm-10.72,3.45c-1.46.84-3.05.82-3.56-.06-.51-.88.27-2.27,1.73-3.11,1.46-.84,3.05-.82,3.56.06.51.88-.27,2.27-1.73,3.11Z"/>
  <path class="cls-14" d="m86.53,102.11l-13.44,2.67-2.72,17.32,26.7,40.43,26.33-9.68-36.88-50.74Zm-6.49,8.88c-2,.67-3.92.35-4.27-.72-.35-1.06.99-2.46,2.99-3.13,2-.67,3.92-.35,4.27.72s-.99,2.46-2.99,3.13Z"/>
  <path class="cls-12" d="m67.35,86.06l-7.32-1.22-9.85,9.15-11.94,64.43,25.81,4.1,10.2-65.04-6.89-11.42Zm-.61,4.87c-.25,1.38-2.12,2.19-4.19,1.82-2.06-.38-3.53-1.8-3.28-3.18.25-1.38,2.12-2.19,4.19-1.82,2.06.38,3.53,1.8,3.28,3.18Z"/>
  <path class="cls-5" d="m48.6,102.5s2.34.85,3.19,3.46.98,5.89-5.17,7.98"/>
  <path class="cls-5" d="m48.62,113.11s5.42.27,6.92,2.01c-1.7.88-7.72,2.03-8.93-.39"/>
  <path class="cls-5" d="m45.98,116.62s1.2,2.68,2.08,3.37c.16-1.44-.05-3.61-.24-4.22"/>
  <path class="cls-5" d="m48.11,104.62s1.35,1.54.92,3.6-1.99,4.18-1.99,4.18"/>
  <path class="cls-5" d="m69.54,98.9s-2.48,1.02-2.78,3.6"/>
  <path class="cls-5" d="m73.59,100.44s-2.26-.78-3.73.26-2.62,3.5-2.62,5.69.75,4.87,2.48,5.66c-.59,1.14-1.8,2.68-1.59,4.94,1.68-.92,3.17-3.07,3.62-3.77"/>
  <path class="cls-5" d="m67.49,108.57s-2.2-2.31-3.9-3.33c.23,1.9,1.05,3.43,1.83,3.92"/>
  <path class="cls-5" d="m68.28,110.64s-3.81-.49-5.61,1.76c1.28.62,4.49.83,6.46.71"/>
  <path class="cls-5" d="m73.49,102.25s-1.6-.4-2.51.55-1.18,3.27-1.14,4.32-.03,3.73.72,3.89"/>
  <path class="cls-5" d="m52.37,131.47s-2.45-1.11-5.49-.56c.49,1.6,1.96,4.35,7.13,4.54-2.58-.03-4.81.62-6.24,3.76,2.22.69,5.62.78,6.54.72s3.66-1.05,5.07-2.75c.59,1.05,2.19,4.48,6.08,4.35.59-1.63.07-4.71-3.76-4.87,3.33-.29,6.05-1.48,7.13-4.65-.82-.13-3.04,1.08-3.63,1.57s-2.32.16-2.52,0c1.01-.95,2.58-3.14,2.45-6.83s-1.54-5.53-2.03-5.89c-1.08.82-3.92,3.43-4.09,6.18-2.03-2.22-3.79-3.99-4.38-4.05-.07,1.05-.43,2.09-.72,2.62s-2.06,2.65-1.54,5.85Z"/>
  <path class="cls-5" d="m52.37,131.47s1.44,3.99,3.69,4.38,3.04.62,4.09-.16,2.52-2.09,2.52-2.09"/>
  <path class="cls-5" d="m54.51,123.9s.48,5.15.97,6.46,2.62,4.71,4.68,5.33c.88-1.99.23-6.6-1.14-8.63"/>
  <path class="cls-5" d="m54.63,125.1s5.19,6.47,4.43,10.02"/>
  <path class="cls-5" d="m61.69,131.21c-.7-5.37,1.75-9.87,1.75-9.87,0,0,1.36,7.51-1.35,12.5"/>
  <path class="cls-5" d="m64.44,119.99s1.67,1.18,1.8,2.71"/>
  <path class="cls-5" d="m65.12,126.76s1.54-1.86,3.47-1.28"/>
  <path class="cls-5" d="m41.62,140.11s3.36.36,4.23,2.58.83,6.15-1,7.67c2.62.26,5.62.96,6.58,4.05-2.96.04-9.33,0-9.33,0,0,0,1.22,1.66,1.13,3.75-2.01-.92-3.99-2.31-4.41-2.97"/>
  <path class="cls-5" d="m41.28,141.96s2.44,1.65,2.05,3.83-1.22,6.5-3.62,7.06c1.44.31,2.4,1.57,2.4,1.57"/>
  <path class="cls-5" d="m44.85,150.36s-3.09,2.36-4.4,2.74"/>
  <path class="cls-5" d="m66.68,145.65s-2.82,1.34-3.43,3.49-.55,4.92.53,6.54c-2.14-.22-4.54-.17-6.5,2.18,2.22.44,5.06.61,7.24,0"/>
  <path class="cls-7" d="m71.32,117.25c-.02-.46,0-.92.1-1.35.04-.2-.07-.53.18-.57.16-.06.91-.04,1.29.32.36.52.43.82.42,1.05.01.25-.33.21-.52.3-.41.19-.84.31-1.3.39-.09.01-.17-.05-.17-.14h0Z"/>
  <path class="cls-7" d="m71.68,118.13c.53-.23,1.08-.36,1.66-.34.28,0,.67-.14.87.16.19.22.44,1.01-.02,1.44-.57.26-.84.44-1.05.48-.21.07-.26-.27-.42-.43l-1.07-1.09c-.07-.06-.05-.18.04-.22h0Z"/>
  <path class="cls-7" d="m71.23,119.48c.45.1.87.24,1.26.45.18.1.52.08.5.32,0,.17-.22.88-.67,1.15-.6.2-.9.19-1.13.12-.24-.06-.11-.37-.14-.58-.06-.44-.05-.89,0-1.34.01-.09.1-.14.18-.13h0Z"/>
  <path class="cls-7" d="m81.07,121.21c-.55.04-1.1.06-1.64.04-.25-.01-.56.18-.69-.04-.16-.19-.23-.55-.38-1.15.08-.63.84-.91,1.1-.93.34-.05.49.32.69.51.42.4.75.86,1.03,1.38.04.08-.02.18-.11.19h0Z"/>
  <path class="cls-7" d="m82.02,120.43c-.27-.57-.51-1.15-.7-1.73-.09-.28-.38-.55-.23-.82.13-.27.37-.54.93-.89.57-.13,1.18.6,1.27.81.17.31-.12.62-.21.92-.2.61-.49,1.18-.85,1.73-.05.08-.18.07-.22-.02h0Z"/>
  <path class="cls-7" d="m83.36,120.79c.01-.42.09-.82.3-1.18.09-.17.11-.52.38-.46.21,0,.8.36.91.91,0,.59.07.92.05,1.07,0,.18-.23-.02-.38-.04-.15-.01-.32-.03-.5-.05-.22-.06-.76-.01-.74-.25h0Z"/>
  <path class="cls-7" d="m81.84,121.98c.31.31.59.64.82.99.1.16.41.3.26.47-.13.18-.35.33-.91.61-.52.18-1.17-.24-1.28-.38-.18-.18.09-.39.17-.58.17-.4.42-.77.72-1.11.06-.06.16-.06.22,0h0Z"/>
  <path class="cls-7" d="m78.48,131.55c-.42.06-.82.09-1.21.05-.18-.02-.47.13-.49-.1-.04-.21-.02-.51.19-1.1.25-.45.91-.71,1.07-.7.23-.03.19.31.27.48.17.37.26.78.31,1.2,0,.09-.06.16-.14.17h0Z"/>
  <path class="cls-7" d="m79.64,131.21c-.3-.31-.57-.65-.77-1.01-.09-.17-.38-.34-.22-.51.09-.13.7-.55,1.21-.51.61.17.84.34.99.51.16.17-.13.34-.22.51-.2.37-.47.7-.77,1.01-.06.06-.16.06-.22,0h0Z"/>
  <path class="cls-7" d="m80.76,132.23c.17-.49.42-.93.79-1.29.17-.17.32-.53.63-.45.26.03.89.47.88,1.06-.16.6-.22.9-.32,1.07-.08.19-.31-.04-.51-.06l-.62-.07c-.19-.09-.89.04-.84-.27h0Z"/>
  <path class="cls-7" d="m79.5,132.67c.17.32.33.64.47.94.05.14.31.3.14.33-.16.06-.4.02-1,.15-.55.12-1.1-.42-1.15-.59-.12-.22.2-.31.34-.42.29-.25.64-.4,1.01-.51.08-.02.16.02.2.09h0Z"/>
  <path class="cls-7" d="m80.89,133.5c.53.03,1.03.12,1.51.33.23.1.61.08.66.4.06.23,0,1-.55,1.27-.6.1-.94.18-1.15.13-.23-.02-.13-.35-.21-.56-.07-.2-.14-.42-.21-.66,0-.22-.38-.86-.05-.91h0Z"/>
  <path class="cls-7" d="m86.99,124.66c.25.32.49.65.7.98.09.15.38.27.23.4-.14.14-.36.26-.93.54-.53.17-1.17-.22-1.27-.39-.18-.2.11-.4.21-.58.2-.39.5-.71.85-.98.07-.05.17-.04.22.03h0Z"/>
  <path class="cls-7" d="m91.01,132.94c-.49-.22-.97-.46-1.42-.71-.21-.12-.56-.09-.57-.33-.03-.25.04-.51.19-1.14.24-.54,1.21-.49,1.4-.38.33.11.28.51.37.77.18.54.24,1.1.21,1.68,0,.09-.11.15-.19.11h0Z"/>
  <path class="cls-7" d="m90.2,133.95l-.87.93c-.12.13-.14.44-.29.34-.14-.06-.38-.34-.9-.62-.45-.43-.24-1.16-.06-1.36.19-.27.53-.08.77-.05.49.06.93.26,1.34.55.07.05.08.16.01.22h0Z"/>
  <path class="cls-7" d="m91.83,134.53c.26.41.49.84.68,1.27.09.2.38.38.22.55-.14.19-.37.29-.91.63-.48.29-1.24-.37-1.29-.54-.17-.25.12-.49.22-.71.21-.46.51-.87.86-1.24.06-.06.17-.05.22.03h0Z"/>
  <path class="cls-7" d="m93.03,134.08c.26-.41.57-.77.97-1.04.19-.13.38-.45.65-.31.21.09.77.53.65,1.15-.3.46-.38.94-.5,1.04-.11.17-.29-.1-.47-.16-.41-.13-.82-.3-1.24-.48-.08-.04-.11-.13-.06-.21h0Z"/>
  <path class="cls-7" d="m92.3,132.64c-.37-.32-.65-.71-.76-1.19-.06-.23-.28-.58,0-.8.24-.21.68-.39,1.23-.07.07.04.11.1.14.17.3.56.54.67.64.78.13.09-.16.09-.28.2-.11.1-.23.23-.36.38-.18.11-.37.69-.62.54h0Z"/>
  <path class="cls-7" d="m92.6,119.44c-.51.25-1.03.47-1.54.65-.24.08-.47.37-.68.22-.24-.13-.35-.38-.75-.87-.34-.45.31-1.17.65-1.33.3-.17.58.12.85.22.55.21,1.04.52,1.5.9.07.06.06.18-.03.22h0Z"/>
  <path class="cls-7" d="m93.66,120.44c.27.3.52.6.72.92.09.14.38.27.22.39-.14.14-.38.19-.94.45-.52.24-1.17-.24-1.26-.38-.17-.18.12-.36.22-.52.21-.35.5-.63.82-.89.07-.05.16-.04.22.02h0Z"/>
  <path class="cls-7" d="m94.52,119.67c.45-.09.89-.11,1.33,0,.21.05.57-.02.62.27.08.39,0,.85-.42,1.15-.05.04-.16.04-.21.05-.61.1-.78.31-.97.31-.18.05-.08-.25-.13-.42-.13-.37-.24-.78-.33-1.18-.02-.08.04-.16.12-.18h0Z"/>
  <path class="cls-7" d="m94.39,118.46c0-.42.07-.82.25-1.2.08-.17.08-.52.35-.49.38.04.77.23.96.7.03.07,0,.15,0,.22-.05.46.12.67.12,1,.01.18-.24,0-.4,0-.36,0-.75-.02-1.14-.07-.08-.01-.14-.08-.14-.16h0Z"/>
  <path class="cls-7" d="m93.38,118.08c-.33-.27-.66-.56-.94-.84-.13-.13-.45-.17-.33-.32.08-.18.33-.25.67-.77.31-.49,1.05-.3,1.37-.05.24.18.03.48,0,.7-.08.46-.28.87-.54,1.25-.05.07-.15.08-.22.03h0Z"/>
  <path class="cls-7" d="m96.47,137.58c-.01.33-.04.64-.03.91,0,.14.11.28.02.35-.08.09-.22.13-.47.35-.33.14-.61-.31-.63-.49-.05-.22.14-.37.24-.5.21-.28.46-.51.77-.67.04-.02.1.01.09.06h0Z"/>
  <path class="cls-7" d="m97.49,146.37l-1.01-.76c-.14-.11-.45-.08-.36-.23.04-.13.36-.42.52-.96.37-.52,1.12-.38,1.34-.21.3.16.14.53.13.76,0,.49-.17.94-.41,1.37-.05.07-.15.09-.22.04h0Z"/>
  <path class="cls-7" d="m96.4,147.07c-.28.16-.86.48-1.14.62-.17.09-.3.38-.41.23-.13-.1-.27-.45-.65-.9-.25-.56.19-1.17.42-1.29.26-.19.51.1.72.2.45.21.81.53,1.11.92.05.07.03.17-.05.21h0Z"/>
  <path class="cls-7" d="m97.25,148.19c.3.46.57.93.77,1.42.09.23.38.44.22.68-.15.24-.4.5-1,.8-.55.09-1.09-.44-1.2-.64-.16-.25.12-.52.22-.78.19-.53.45-1.03.77-1.5.05-.08.17-.07.22,0h0Z"/>
  <path class="cls-7" d="m98.34,147.87c.47-.14.93-.2,1.41-.14.23.02.58-.09.69.19.11.21.2.92-.29,1.3-.53.19-.88.44-1.05.45-.19.06-.15-.26-.25-.43-.1-.16-.2-.34-.3-.54-.04-.21-.5-.69-.22-.83h0Z"/>
  <path class="cls-7" d="m98.69,145.59c-.06-.43-.02-.86.21-1.23.11-.18.2-.57.53-.5.3.05.7.28.76.91,0,.08-.01.15-.04.22-.22.59-.1.84-.07.98.07.15-.09-.1-.21-.13-.11-.04-.26-.06-.43-.07-.19-.08-.67.09-.75-.16h0Z"/>
  <path class="cls-7" d="m105.08,134.21c.24.45.46.9.64,1.36.08.21.37.4.22.57-.13.2-.37.29-.87.68-.44.33-1.23-.29-1.32-.54-.18-.27.11-.54.22-.77.21-.49.52-.92.9-1.32.06-.06.18-.05.22.03h0Z"/>
  <path class="cls-7" d="m105.7,133.26c.49-.15.98-.23,1.49-.21.24.01.59-.13.73.14.13.2.34.89-.08,1.35-.51.25-.85.53-1.05.54-.21.06-.23-.27-.36-.44-.29-.36-.55-.76-.8-1.17-.05-.08,0-.18.08-.21h0Z"/>
  <path class="cls-7" d="m104.33,132.99c-.33.36-.69.7-1.08.97-.18.13-.32.45-.55.33-.13-.03-.77-.57-.86-1.03.04-.65.23-.93.41-1.12.18-.2.45.04.68.09.48.11.93.3,1.37.55.08.04.09.15.03.22h0Z"/>
  <path class="cls-7" d="m104.48,132.33c-.33-.71-.77-1.38-1-2.07-.02-.25.06-.5.15-.85,0-.03.04-.05.06-.05.77.11,1,.73.94,1.35.03.54.02,1.06-.05,1.6,0,.05-.08.07-.11.02h0Z"/>
  <path class="cls-7" d="m105.35,131.63c-.08-.33-.09-.64-.04-.98.03-.16-.01-.39.17-.5.14-.1.59-.23.77.06.04.31.12.48.11.59.01.12-.17.14-.27.23-.2.18-.41.39-.64.61-.03.04-.1.02-.11-.03h0Z"/>
  <path class="cls-7" d="m98.05,156.42c-.51-.03-1.01-.09-1.49-.18-.22-.04-.54.1-.6-.13-.1-.22-.03-.47-.08-1.1-.05-.52.88-.86,1.18-.81.32,0,.38.38.52.6.29.44.49.93.61,1.46.02.09-.05.17-.14.17h0Z"/>
  <path class="cls-7" d="m99.13,156.12c-.33-.39-.58-.82-.7-1.32-.06-.24-.29-.56-.04-.8.3-.31.81-.5,1.28-.24.07.03.1.11.13.17.3.55.59.6.67.77.13.14-.19.2-.3.35l-.38.49c-.18.12-.42.77-.67.57h0Z"/>
  <path class="cls-7" d="m100.16,156.23c.3-.35.65-.64,1.08-.82.2-.09.47-.36.71-.14.31.26.55.74.32,1.22-.03.07-.1.11-.16.15-.4.26-.41.54-.61.79-.1.15-.18-.15-.32-.25-.31-.22-.68-.48-.99-.72-.07-.05-.08-.15-.03-.22h0Z"/>
  <path class="cls-7" d="m99.33,157.45c.44.1.86.23,1.24.44.18.09.52.07.48.31-.02.23-.11.51-.52,1-.41.33-1.15.31-1.3.25-.23-.05-.1-.36-.12-.56-.05-.43-.03-.87.03-1.31.01-.08.1-.14.18-.13h0Z"/>
  <path class="cls-7" d="m98.4,157.56c.13.41.23.82.29,1.22.03.18.24.42.05.49-.33.14-.58.02-1.03.13-.49.21-.98-.5-1.06-.82-.09-.26.26-.34.41-.48.33-.29.72-.49,1.14-.65.08-.03.17.02.2.1h0Z"/>
  <path class="cls-7" d="m113.94,151.53c-.05.43-.11.93-.16,1.35-.03.2.14.47-.05.49-.19.06-.44,0-1.06.09-.63.01-.94-.81-.91-1.08-.01-.34.38-.41.59-.54.44-.28.92-.42,1.44-.48.09,0,.16.07.15.16h0Z"/>
  <path class="cls-7" d="m113.57,150.19c-.51-.04-1.01-.11-1.48-.22-.22-.05-.55.07-.61-.16-.09-.23-.04-.49,0-1.12.03-.54,1.03-.78,1.22-.72.31,0,.34.39.46.6.27.45.44.94.56,1.45.02.09-.06.17-.15.16h0Z"/>
  <path class="cls-7" d="m114.67,150.36c-.3-.5-.57-1.02-.78-1.55-.1-.25-.4-.49-.26-.73.02-.14.7-.8,1.07-.91.55.09.88.37,1.12.74.19.28-.09.57-.18.85-.17.57-.44,1.1-.76,1.6-.05.08-.17.08-.22,0h0Z"/>
  <path class="cls-7" d="m116.41,149.89c-.24-.41-.4-.85-.4-1.33,0-.23-.15-.6.17-.77.37-.21.98-.24,1.28.22.04.06.04.14.04.22.01.48.27.62.46.85.11.12-.19.06-.33.16l-.46.31c-.2.06-.57.57-.76.34h0Z"/>
  <path class="cls-7" d="m116.67,151c.47-.23.95-.4,1.47-.44.25-.02.58-.22.78.05.11.12.19.28.25.49.05.2.12.7-.18.89-.46.17-.61.5-.94.63-.19.1-.26-.23-.41-.38-.16-.14-.32-.3-.49-.47-.1-.19-.74-.57-.48-.77h0Z"/>
  <path class="cls-7" d="m115.45,152.46c.27.29.57.63.82.93.11.14.42.2.29.33-.08.13-.43.33-.79.77-.5.35-1.16.04-1.32-.15-.23-.21,0-.49.07-.71.13-.45.38-.84.7-1.18.06-.06.16-.06.22,0h0Z"/>
  <ellipse class="cls-7" cx="86.27" cy="140.19" rx=".53" ry=".81"/>
  <circle class="cls-7" cx="88.05" cy="141.38" r=".39"/>
  <ellipse class="cls-7" cx="90.1" cy="125.58" rx=".61" ry=".49"/>
  <ellipse class="cls-7" cx="99.75" cy="126.37" rx=".69" ry="1.22"/>
  <ellipse class="cls-7" cx="110.5" cy="140.77" rx="1" ry="1.22"/>
  <ellipse class="cls-7" cx="86.88" cy="107.12" rx=".78" ry="1.05"/>
  <ellipse class="cls-7" cx="87.66" cy="111.09" rx=".44" ry=".78"/>
  <circle class="cls-7" cx="106.96" cy="155.71" r=".41"/>
  <circle class="cls-7" cx="105.89" cy="148.5" r=".69"/>
  <path class="cls-6" d="m126.1,71.7s3.3-3.5,7.06-.26"/>
  <path class="cls-6" d="m127.9,77.06s1.9-5.75,9.81-2.16"/>
  <path class="cls-6" d="m132.41,73.72s.85-3.46,4.12-3.39,5.26,2.48,5.26,2.48"/>
  <path class="cls-6" d="m139.47,63.53s-3.77,2.11-3.27,6.81"/>
  <path class="cls-6" d="m143.36,67.74s-1.75,2.34-1.89,4.73"/>
  <path class="cls-6" d="m136.89,79.61s-.46-4.23,2.22-5.76,7.62-.29,7.62-.29"/>
  <path class="cls-6" d="m148.1,73.09s-2.32.78-2.58,3.26-.33,2.9-.33,2.9"/>
  <path class="cls-6" d="m140.67,79.61s.24-1.99,1.38-2.55,3.44-.42,3.44-.42"/>
  <path class="cls-6" d="m132.41,82.16s2.58-3.17,6.08-2.71,4.87,2.71,4.87,2.71"/>
  <path class="cls-6" d="m133.88,85.01s2.62-1.28,4.81-1.05,2.79.43,2.79.43"/>
  <path class="cls-6" d="m153.24,79.84s-3.5-1.04-5.26-.44-4.87,2.73-5.79,4.03-1.18,2.65-1.14,3.92"/>
  <path class="cls-6" d="m137.1,89.78s3.55-2.91,7.05-2.71,8.6,3.2,9.78,4.74"/>
  <path class="cls-6" d="m138.72,92.63s2.21-1.37,4.36-1.24,5.19,1.05,5.81,2.16"/>
  <path class="cls-6" d="m152.35,90.42s-1.04-7.87,3.65-9.47"/>
  <path class="cls-6" d="m146.17,87.36s.23-3.16,2.42-3.43,4.34.27,4.34.27"/>
  <path class="cls-6" d="m156.21,89.43s-.42-4.28,2-5.79"/>
  <polygon class="cls-3" points="60.02 84.84 50.17 94 38.23 158.43 64.03 162.53 74.23 97.49 67.35 86.06 60.02 84.84"/>
  <polyline class="cls-3" points="73.09 104.78 86.53 102.11 123.41 152.85 97.08 162.53 70.38 122.1"/>
  <ellipse class="cls-3" cx="63" cy="90.25" rx="2.54" ry="3.79" transform="translate(-37.07 136.07) rotate(-79.68)"/>
  <ellipse class="cls-3" cx="79.4" cy="109.06" rx="3.83" ry="2.03" transform="translate(-30.35 30.62) rotate(-18.39)"/>
  <path class="cls-3" d="m121.32,58.3s-.87-.13-1.26.61-1.44,3.62-1.44,5.27.26,2.18,1.05,3.18,21.45,29.16,21.45,29.16l21.62-7.37s-23.98-29.29-25.46-30.86c-1.48-1.57-4.53-2.57-7.24-2.66s-6.36-.26-6.89,0-1.7.96-1.83,2.66Z"/>
  <ellipse class="cls-3" cx="125.63" cy="60.16" rx="3.05" ry="1.83" transform="translate(-13.25 70.88) rotate(-30)"/>
</svg>