<?xml version="1.0" encoding="UTF-8"?>
<svg id="Layer_2" data-name="Layer 2" xmlns="http://www.w3.org/2000/svg" viewBox="0 0 446.78 487.36">
  <defs>
    <style>
      .cls-1 {
        fill: #f7fdff;
      }

      .cls-2 {
        fill: #ecd8cf;
      }

      .cls-3 {
        fill: #ffdccc;
      }

      .cls-4 {
        fill: #fff6f0;
      }

      .cls-5 {
        fill: #eceaec;
      }

      .cls-6 {
        fill: #ffbec1;
      }

      .cls-7 {
        fill: #ffcf6a;
      }

      .cls-8 {
        fill: #9e977e;
      }

      .cls-9 {
        fill: #b989a0;
      }

      .cls-10 {
        fill: #9d5669;
      }

      .cls-11 {
        fill: #b6c8d3;
      }

      .cls-12 {
        fill: #c1b5d0;
      }

      .cls-13 {
        fill: #8d8d96;
      }

      .cls-14 {
        fill: #b27460;
      }

      .cls-15 {
        fill: #3b3645;
      }

      .cls-16 {
        fill: #533b51;
      }

      .cls-17 {
        fill: #756851;
      }

      .cls-18 {
        fill: #748b89;
      }

      .cls-19 {
        fill: #52525f;
      }

      .cls-20 {
        stroke-linecap: round;
      }

      .cls-20, .cls-21 {
        fill: none;
        stroke: #000;
        stroke-miterlimit: 10;
        stroke-width: 1.79px;
      }
    </style>
  </defs>
  <path class="cls-5" d="m198.09,460.04s-9.04,6.13-10.29,7.17c-1.24,1.04-2.95,2.32,1.99,5.95s23.88,12.23,27.34,12.64,6,.51,8.01-4.44c2.01-4.95,1.64-5.69,1.64-5.69l-28.7-15.64Z"/>
  <path class="cls-12" d="m283.55,375.12s7.89-2.87,9.47-1.91,2.95,5.04,3.4,6.97,3.71,19.31,1.13,25.16c-.86,1.96-1.04,3.16-5.01.67s-6.59-4.21-6.59-4.21c0,0-.92-20.34-2.39-26.68Z"/>
  <path class="cls-12" d="m210.97,483.4s9.62-8.73,9.24-12.09c3.35,1.98,7.9,5.04,7.9,5.04,0,0-1.92,7.32-3.87,8.53s-5.43,2.7-13.27-1.49Z"/>
  <path class="cls-15" d="m121.75,391.04s11.6,9.95,29.62,15.41c18.02,5.46,51.02,15.08,60.94,11.72,1.57-6.41,2.51-8.22,2.51-8.22l-10.72-20.66s-13.2-1.92-16.01-5.19c.8-6.49,6.51-42.51,6.51-42.51,0,0-4.44-8.4-4.29-10.81-3.36-2.86-9.02-6.09-7.6-9.25s4.33-8.23,3.74-10.55-5.92-19.21-5.92-19.21c0,0-9.62,22.25-15.85,31.92-6.23,9.67-42.94,67.34-42.94,67.34Z"/>
  <path class="cls-15" d="m276.93,349.96l42.01,43.22s-14.48-1.58-20.52,4.08c-.23-7.04-2.08-22.99-4.62-24.28s-7.93.52-10,1.55-4.95.08-4.95.08c0,0,.89-13.02.51-15.29-.38-2.26-2.43-9.37-2.43-9.37Z"/>
  <path class="cls-1" d="m180.69,290.44s6.78,19.52,6.04,22.82c-1.32,2.87-4.82,8.08-4.13,9.46s12.01,18.87,12.01,18.87c0,0,15.93-.11,23.91-.54s34.16-1.58,43.56-6.39c-3.35-3.75-21.99-23.47-25.2-27.57-3.2-4.1-6.08-8.54-7.32-12.28-1.24-3.74-7.33-21.11-7.76-24.21s-.13-10.79.42-13.5c.55-2.71,3.2-14.23,3.2-14.23,0,0-11.75,4.82-14.41,6.16s-4.37,4.95-4.82,8.06c-.45,3.11-2.79,13.09-2.79,13.09,0,0-2.14-12.83-2.28-15.08s-2.07-5.75-5.06-6.2c-.94,1.53-1.45,7.12-1.65,8.18s-8.91,27.39-13.73,33.34Z"/>
  <path class="cls-11" d="m195.83,265.53s2.74-5.33,6.04-6.04c-.68-2.6-.76-4.49-.76-4.49,0,0-4.21,3.64-5.29,6.14s0,4.39,0,4.39Z"/>
  <path class="cls-11" d="m204.97,262.78s8.28-3.02,9.86,1.61c3.28,0,4.84-2.36,6.51,0,.47-4.5.09-5.73.09-5.73l-6.31,4.92s-2.93-8.93-7.33-11.19c-1.01,2.18-2.82,10.39-2.82,10.39Z"/>
  <path class="cls-13" d="m94.43,178.89s-8.82,7.35-16.47,22.83c10.56,8.96,32.7,27.59,35.96,30.41,3.26,2.82,14.19,10.5,15.28,11.5s29.99,27.18,31.27,30.58c0,0,.22,33.2-1.24,36.15s-36.45,72.42-37.49,80.14c0,0,32.36-49.25,35-53.53s11.94-20.42,14.18-25.25,15.51-31.95,16.96-35.42c1.45-3.47,12.06-28.61,6.65-41.35-9.3-3.13-26.82-8.71-36.24-15.79-9.42-7.08-21.29-14.87-21.29-14.87,0,0-28.33-18.69-30.52-20.31s-5.33-6.32-12.07-5.09Z"/>
  <path class="cls-13" d="m228.11,233.82s-7.95,25.6-6.51,33.25c1.44,7.64,10.07,32.99,10.07,32.99,0,0,14.19,17.82,26.49,30.56,12.3,12.74,77.08,79.33,77.08,79.33,0,0,11.91-9.72,15.43-12.68,3.52-2.96,18.47-15.71,25.04-24.6,6.56-8.9,11.94-27.16,9.96-47.54-5.16-3.43-14.77-7.93-26.49-11.18-11.73-3.26-47.83-18.54-47.83-18.54,0,0-16.99-5.52-17.98-6.94s-1.65-4.92-2.72-8.09c-1.07-3.16-2.16-5.74-2.16-5.74,0,0,27.72-2.22,36.54-2.5,8.82-.28,40.77,0,40.77,0,0,0,5.24-13.07,5.47-18.64.24-5.56,1.72-9.05-5.55-9.91-7.27-.87-52.68-5.99-52.68-5.99l-4.91-6.04-8.4,2.83-6.79-7.17-19.54,5.47s3.94-2.94,5.02-5.47,1.15-5.25,1.15-5.25l-12.68-3.08s-30.44,13.94-38.79,14.93Z"/>
  <path class="cls-13" d="m194.61,341.59l-6.7,42.28s6.25,5.24,29.07,6.76c.16,1.96,0,3.2,0,3.2,0,0,24.58,4.02,39.87,4.6,15.29.58,23.41.25,23.71-.44s-.69-4.51-.84-5.46-.88-24.97-.34-29.98-5.01-15.22-5.01-15.22l-12.3-12.67s-14.6,5.33-38.58,6.12c-23.98.79-28.89.8-28.89.8Z"/>
  <path class="cls-19" d="m121.75,238.3s35.69,18.97,38.61,20.36c-.05,5.37.24,16.4.24,16.4,0,0-18.27-20.5-22.87-24.11-4.6-3.61-15.97-12.65-15.97-12.65Z"/>
  <polygon class="cls-19" points="292.97 227.38 288.5 251.94 307.55 231.73 299.46 234.24 292.97 227.38"/>
  <path class="cls-19" d="m335.27,271.84s-32.28-5.04-51.67-6.03c-19.39-.99-29.99-1.42-29.99-1.42,0,0,11.73,19.03,18.53,22.32,6.79,3.3,20.54,12.4,22.3,14.93s5.02,26.31,1.62,38.91c8.35-14.01,12.46-28.28,13.73-32.54,1.27-4.26-7.14-15.79-7.14-15.79,0,0-9.19-2.14-10.27-5-1.07-2.85-3.89-12.59-3.89-12.59l46.78-2.79Z"/>
  <path class="cls-19" d="m385.67,332.48s-32.27-4.25-38.86-3.96-5.73.76,0,5.19c5.73,4.43,31.47,24.54,33.39,31.12,2.66-7.5,5.6-19.75,5.46-32.35Z"/>
  <polygon class="cls-19" points="210.64 390.09 218.34 381.39 217.32 391.04 210.64 390.09"/>
  <path class="cls-18" d="m60.62,134.16s4.81,1.87,6.41-1.14c2.31,9.22,14.3,55.4,14.3,55.4l-6.55,1.79-14.15-56.05Z"/>
  <path class="cls-2" d="m60.62,124.25v9.91s4.72.74,6.41-1.14c-1.27-3.36-4.47-9.75-4.47-9.75l-1.94.99Z"/>
  <path class="cls-3" d="m94.43,178.89s-8.07,6.83-16.68,23.23c-8.4-3.52-14.68-4.83-18.01-14.74.52-9.69-.29-11.47,2.98-14.51s6.48-5.1,6.48-5.1l5.62,22.43,6.51-1.82-2.04-7.82s-2.81.36-4.23-.45-3.36-3.99-2.6-6.74,2.68-5.23,4.11-5.4,8.84-.67,11.2,1.64c2.36,2.31,6.45,7.53,6.68,9.28Z"/>
  <path class="cls-3" d="m371.28,246.65s6.5-1.27,10.35,1.3,5.95,8.38,5.3,11.11-4.31,7.13-9.96,9.89c-5.65,2.76-8.29,3.24-11.17,3.18,1.62-4.13,8.45-22.22,5.47-25.48Z"/>
  <path class="cls-3" d="m204.55,389.35l10.28,21.13-16.54,49.07s24.35,11.32,29.82,16.7c2.68-4.99,28.18-61.46,28.18-61.46,0,0,27.31-8.94,29.3-12.81.06-3.87-.46-25.46-2.21-27.45-3.74-.39-4.53.08-4.53.08,0,0-.72,16.52,2.12,23.12-1.98,1.13-13.12,1.51-18.21,1.23s-38.32-2.83-45.58-5c.19-2.17-.19-3.36-.19-3.36l-12.42-1.25Z"/>
  <path class="cls-3" d="m133.27,195.15s9.53,14,21,21.25c11.47,7.25,28.13,16.44,40.93,18.34,12.8,1.9,19.48,4.14,38.76-2.71,19.27-6.85,33.7-13.55,33.7-13.55,0,0,5.75-12.36,6.68-15.07s4.5-14.93,3.56-21.99c-.95-7.06-2.5-53.35-21.19-59.58-18.69-6.23-29.66-19.24-43.67-21.04-14.01-1.79-83.83,9-83.83,9l4.06,85.34Z"/>
  <path class="cls-3" d="m195.2,234.74s1.76,9.69.87,14.18c1.84.93,4.93,3.13,4.92,3.96s.93,13.47,2.13,16.36c1.48-4.39,3.61-16.61,4.89-17.87s14.46-7.46,17.42-8.49c.69-2.5,2.68-8.93,2.68-8.93,0,0-14.05,3.44-20.1,3.02-6.04-.42-12.81-2.23-12.81-2.23Z"/>
  <path class="cls-6" d="m152.14,189.46c.71-2.52-4.06-5.87-10.95-6-6.89-.13-11.89.81-11.99,5.06s5.57,4.81,9.25,4.72,12.27,1.23,13.68-3.77Z"/>
  <path class="cls-6" d="m239.72,204.29c2.19-2.11,8.92-3.17,15.43-2.75s10.26,3.11,10.48,6.65c.21,3.54-5.95,6.58-14.86,5.66-8.92-.92-15.64-5.12-11.04-9.57Z"/>
  <path class="cls-6" d="m184.82,202.86s22.81,3.97,32.25.76c4.15,4.91,5.6,11.4,4.82,15.8-.78,4.41-2.19,14.23-10.44,16.91-8.14.15-20.94-1.19-23.94-4.59-3-3.4-5.53-10.71-5.14-16.23s2.45-12.65,2.45-12.65Z"/>
  <path class="cls-9" d="m183.66,223.83s4.44-4.58,5.01-6.5,2.45-2.33,5.95-1.42,17.18,1.16,21.23.28,5.79-.88,6.38.44c-1.21-6.52-2.89-11.8-5.16-13.02-3.21.66-19.74,2.22-32.05-.73-1.08,2.43-4.2,11.99-1.36,20.94Z"/>
  <path class="cls-7" d="m305.5,189.74s3.61,3.87,10.49,2.83c6.88-1.04,19.23-6.28,20.74-6.57s5.16-1.39,5,.49c-.17,1.88-9.44,20.92-15.56,26.34,1.28,2.62,3.44,5.85,2.63,7.26s-4.89,3.74-4.89,3.74c0,0,.99,6.33,1.98,8.3s4.44,6.97,7.83,7.92c-6.57-.86-20.89-2.73-20.89-2.73l-4.68-5.76-8.68,2.69-5.85-7.03-20.13,5.42s4.21-3.54,5.09-5.42,1.7-5.8,1.7-5.8c0,0,11.16-9.59,15.78-14.87,4.62-5.28,8.21-17.08,9.44-16.8Z"/>
  <path class="cls-14" d="m288.84,214.02s25.34,1.16,30.53,0c-3.04,3.42-10.71,9.88-10.71,9.88l-22.48-7.72,2.66-2.17Z"/>
  <path class="cls-4" d="m140.63,148.31s25.48-9.91,39.07,2.45c1.13,6.23,0,23.03-6.04,28.12-6.04,5.1-15.48,5.85-20.95,2.64-5.47-3.21-10.38-4.53-12.08-33.22Z"/>
  <path class="cls-4" d="m220.28,157.66s14.02-5.46,30.91-2.12c10.76,2.12,18.47,12.24,18.47,12.24,0,0-1.25,11.57-4.08,15.68-2.83,4.12-8.49,14.69-22.65,12.99-14.16-1.7-19.82-10.76-22.65-17.55-2.83-6.79,0-21.23,0-21.23Z"/>
  <path class="cls-10" d="m149.97,145.71s-3.12,10.53-.29,25.78c9.81,15.51,22.93,1.74,22.93,1.74,0,0,4.35-21.39,2.1-25.83,0,0-9.39-4.53-24.75-1.68Z"/>
  <path class="cls-10" d="m260.37,159.49c3.85,3.15-2.1,25.83-2.1,25.83,0,0-12.7,14.33-22.93-1.74-4.58-15.45-.43-28.93-.43-28.93,0,0,18.3-1.04,25.46,4.83Z"/>
  <path class="cls-16" d="m155.7,157.67s-2.35,13.71,3.21,14.85,9.75,1.47,12.11-6.72c1.16-4.02,1.57-14.94.44-19.37,0,0-3.71-2.37-11.97-1.65.7,3.03,1.96,7.06.2,9.28s-3.99,3.61-3.99,3.61Z"/>
  <path class="cls-16" d="m257.31,157.66c3.57,2.86.73,17.96-1.06,21.74s-5.68,5.81-11.24,4.68c-5.56-1.13-5.85-16.44-5.85-16.44,0,0,3.99-.17,5.82-2.99s.99-8,.13-9.76c4.31.54,10.1,1.08,12.2,2.77Z"/>
  <path class="cls-4" d="m148.55,156.33c7.6,3.41,10.58-.37,11.81-3.77s-1.61-8-1.61-8l-8.88,1.54-1.33,10.24Z"/>
  <path class="cls-4" d="m234.2,166.3c7.6,3.41,10.58-.37,11.81-3.77s-1.61-8-1.61-8h-9.68l-.52,11.78Z"/>
  <path class="cls-8" d="m246.51,1.09s20.8,9.82,20.5,35.58c-14.11-6.73-32.28-16.27-63.38-15.07-31.11,1.2-54.36,11.04-67.08,18.39-12.72,7.35-30.77,28.02-34.3,35.05-3.53,7.03-6.96,25.02-10.15,30.36s-7.07,11.39-12.49,13.19c7.4.6,16.54.34,20.18-1.95-1.8,5.64-8.84,29.1-7.69,44.45,4.39-4.25,9.05-11.29,11.26-14.09,2.21-2.81,7-8.83,10.52-7.72.5,4.47,3.33,20.09,6.1,30.72,2.77,10.63,9.89,32.22,8.28,42.83,3.14-8.49,8.38-32.68,8.42-54.33,1.04,4.05,7.26,24.21,7.26,24.21,0,0-3.29-15.45-1.64-29.14,1.64-13.68,5.54-31.99,14.31-44.18-.67,6-1.27,21.07,0,26.1,3.37-8.47,7.94-19.53,10.86-23.08,2.92-3.55,7.45-6.84,7.45-6.84,0,0-4.02,10.19,2.81,27.42,6.83,17.23,14.48,28.41,14.48,28.41,0,0-2.47-7.38-.57-14.42,1.9-7.04,5.54-16.42,8.92-19.65,3.39-3.23,7.52-5.62,9.67-7.54,2.15-1.92,9-7.31,12.19-19.91,1.97,5.32,7,19.07,7.54,28.82s.26,19.17-1.16,22.78c2.44-2.31,10.68-11.05,12.53-28.74,2.88,4.71,9.72,17.63,7.59,30.44,4.02-2.83,8.93-9.5,12.35-22.06,4.55,4.39,9.8,9.91,9.86,12.83s2.61,34.58-1.31,52.65c4.83-8.26,8.06-15.21,8.06-15.21,0,0,.75,12.93-4.96,25.59s-9.17,18.99-9.31,33.8c5.29-8.94,7.96-12.57,13.53-16.98,5.57-4.41,18.21-13.29,22.87-23.1,4.66-9.81,8.48-18.61,9.12-23.83.16,6.95,0,16.86-2.05,21.11,3.82-5.45,13.04-26.41,13.49-36.1,3.22,1.83,16.31,10.12,25.86,8.07-3.47-5.13-8.84-15.76-12.15-35.96-3.32-20.21-7.16-48.06-10.31-53.46s-11.24-18.03-28.96-24.47c3.65-.32,14.82.29,21.2,1.56-2.65-4.48-6.44-9.79-13.91-11.51-7.46-1.72-14.75,1.11-14.75,1.11,0,0,4.28-13.94,3.63-19.47-.65-5.52-.92-10.57-11.28-15.96-10.36-5.39-21.58-10.87-33.4-10.73Z"/>
  <path class="cls-17" d="m321.78,272.58s6.15,9.86,13.15,10.65,17.99-1.97,20.57-3c-1.67,3.41-6.15,8.7-11.37,10.16,5.25.9,19.29,3.32,29.73-2.09-1.53,3.64-5.86,9.81-10.27,11.03-4.41,1.22-9.3,1.96-9.3,1.96,0,0,5.12,7.76,8.98,8.13-6.53.17-15.84.5-15.84.5l-53.75-21.19s-1.05.38-2.04-3.99c-.99-4.37-3.15-10.11-3.15-10.11l33.28-2.05Z"/>
  <path class="cls-17" d="m285.73,119.4s-1.84,13.06-5.95,19.29c-.29,4.12-.84,14.29-3.89,17.69-1.63-7.35-1.85-8.82-5.21-12.41.89,5.66,3.21,28.17-.36,52.81,3.78-7.29,11.34-24.07,14.36-36.41,3.02-12.35,2.32-34.07,1.04-40.97Z"/>
  <path class="cls-17" d="m92.1,161.9s9.19-36.4,25.37-51.32c-2.37,10.99-4.41,23.58-3.54,28.04-2.16.85-7.33,3.44-10.56,8.38-3.23,4.93-11.27,14.91-11.27,14.91Z"/>
  <path class="cls-17" d="m80.97,117.91s4.8-.11,10.08-2.97c5.27-2.86,10.57-11.52,15.14-14.13-3.23,7.36-6.69,16.69-6.69,16.69,0,0-13.51,2.18-18.54,1.71v-1.29Z"/>
  <path class="cls-17" d="m308.66,130.19s2.03,10.31,1.94,18.82c-.1,8.51-.1,21.1-1.94,25.77.67,5.23.57,16.56-2.12,23.22,4.17-5.88,11.13-15.8,14.06-36.92,3.51,2.8,12.84,9.17,25.86,8.89-14.86-7.22-19.81-12.93-24.2-26-6.94-2.03-10.62-10.52-13.59-13.78Z"/>
  <path class="cls-17" d="m216.6,112.85s9.18-.12,10.45,1.07c-1.03-3.66-4.61-13.18-4.61-13.18,0,0-4.54,11.18-5.84,12.1Z"/>
  <path class="cls-21" d="m59.73,117.91s.74,14.51,1.33,17.49c.6,2.98,13.7,54.81,13.7,54.81l6.55-1.79s-.73-2.79-1.86-7.11c-3.86-.2-6.52-1.44-7.07-3.98-.94-4.34.42-6.75,3.49-9.78-3.9-14.99-8.52-32.84-8.86-34.54-.6-2.98-7.29-15.11-7.29-15.11Z"/>
  <path class="cls-21" d="m69.19,167.77c-2.01.8-5.74,3.97-7.52,6.35-1.79,2.38-2.98,10.13-.6,16.08s11.32,10.72,16.68,11.91c9.53-17.87,16.68-23.23,16.68-23.23,0,0-4.17-8.94-8.34-10.13s-8.94-1.19-10.13-.6-4.17,4.17-3.57,7.15c.6,2.98.6,7.15,8.94,4.77,0,0-2.38,2.38,0,8.34"/>
  <path d="m60.25,126.7s1.71,1.43,3.64-.9l-4.17-7.9.52,8.8Z"/>
  <path d="m60.64,131.76s2.22,1.86,3.41,1.26,1.87-3,1.87-3l.95,2.41.61,2.5s-2.84,4.05-6.41.47c-.6-2.38-.43-3.64-.43-3.64Z"/>
  <path class="cls-21" d="m77.75,202.12s28.6,22.64,30.98,25.02,8.94,8.94,14.3,11.91,17.87,15.49,23.83,20.85c5.96,5.36,13.74,15.15,13.74,15.15"/>
  <path class="cls-20" d="m224.29,87.87s0,24.21-17.98,34.65c-13.13,7.63-17.25,30.36-14.78,37.3-8.16-12.32-17.87-32.17-17.87-45.28s13.18-44.36,23.31-50.32"/>
  <path class="cls-20" d="m147.28,79.09s-29.73,31.19-4.3,99.8c-3.86-25.12,2.56-53.33,13.64-70.16"/>
  <path class="cls-20" d="m173.66,79.09s-22.75,10.41-17.04,57.78c4.29-13.67,9.12-25.61,18.44-32.02"/>
  <path class="cls-20" d="m267.01,36.67s2.15-23.12-20.5-35.58c22.08,1.13,40.2,13.63,43.6,20.12,3.4,6.49-2.26,25.72-2.26,25.72,0,0,18.69-7.34,28.88,10.78-11.89-1.7-20.95-3.4-26.05,0"/>
  <path class="cls-20" d="m222.44,99.9s14.33,34.42,4.83,54.16c10.89-12.11,18.11-28.25,12.16-54.16"/>
  <path class="cls-20" d="m241.58,122.52s8.9,13.07,7.2,31.53c8.07-5.74,19.11-32.07,13.17-51.61"/>
  <path class="cls-20" d="m261.29,131.14s14.25,11.27,14.67,26.52c5.52-10.24,5.95-42.9-3.4-57.76-9.34-14.86-18.12-20.55-26.05-24.29"/>
  <path class="cls-20" d="m269.66,140.32s5.82,13.07,0,57.68c10.23-19.11,20.32-38.71,16.07-78.6"/>
  <path class="cls-20" d="m278.19,180.73s1.7,13.74-8.53,33.27c-5.95,11.36-6.46,27.89-6.46,27.89,0,0,3.63-10.33,13.29-17.55,9.66-7.22,18.25-15.31,22.68-22.21,11.27-17.57,12.03-42.77,11.18-61.45"/>
  <path class="cls-20" d="m136.49,157.66s-.25,36.95-8.32,57.2c1.27-17.11-8.09-39.37-13.17-66.97-5.07-27.6,9.14-57.25,13.42-65.22,4.27-7.97,20.24-25.28,36.96-26.54"/>
  <path class="cls-20" d="m118.85,79.09s-26.75,34.4-26.75,82.81c8.04-7.64,13.03-21.97,21.41-22.82"/>
  <path class="cls-20" d="m99.8,116.63s-9,4.08-20.18,1.95c15.71-7.22,17.04-30.09,22.09-42.32,5.05-12.23,26.3-31.72,38.5-38.51,12.2-6.79,44.73-17.84,76.58-16.14,31.85,1.7,56.2,18.69,56.2,18.69"/>
  <path class="cls-21" d="m294.73,56.14s23.98,8.94,30.21,26.78c6.23,17.84,8.78,73.47,21.52,87.06-10.19,1.7-25.86-8.07-25.86-8.07"/>
  <path class="cls-20" d="m308.9,174.54s1.98,13.13-2.37,23.47c8.49-8.54,16.42-38.17,15.67-54.03"/>
  <path class="cls-21" d="m133.27,195.15s13.97,20.73,37.56,30.92c23.59,10.19,37.56,13.59,57.28,7.74s31.07-10.85,39.55-15.33"/>
  <path class="cls-21" d="m305.22,189.46s6.41,5.91,17.55,1.54c11.14-4.37,22.08-9.09,18.12-.97-3.96,8.11-11.42,20.01-15.38,23.4,3.96,3.4,5.84,8.49-2.04,10.19,2.04,5.95,1.19,12.17,10.81,16.42"/>
  <polyline class="cls-20" points="286.72 215.97 308.66 223.91 320.59 213.86 305.83 214.86"/>
  <path class="cls-21" d="m371.28,246.65s7.74-1.7,12.46,3.4c4.72,5.1,3.77,11.14,0,14.34-3.77,3.21-11.7,8.12-17.93,7.74,2.26-5.85,7.36-17.55,5.47-25.48Z"/>
  <path class="cls-21" d="m365.8,272.13s-34.82-.66-40.77,0-33.24,2.88-36.54,2.5"/>
  <path class="cls-20" d="m321.78,272.58s6.56,11.63,17.46,11.07c10.9-.57,17.84-4.11,17.84-4.11,0,0-5.52,8.99-14.01,10.62,8.21,1.91,16.14,2.05,21.73.85s10.48-3.26,10.48-3.26c0,0-6.51,11.32-15.15,12.67-8.64,1.34-14.58-.85-14.58-.85"/>
  <path class="cls-20" d="m353.96,300.86s4.95,6.85,9.63,8.41c-6.3.21-10.4.77-17.2.13"/>
  <path class="cls-21" d="m272.94,232.78l20.67-5.57,6.13,6.89,8.4-2.55,4.91,6.04s52.19,5.66,55.02,6.42,3.21,2.64,3.21,2.64"/>
  <path class="cls-21" d="m140.63,148.31s25.48-9.91,39.07,2.45c1.13,6.23,0,23.03-6.04,28.12-6.04,5.1-15.48,5.85-20.95,2.64-5.47-3.21-10.38-4.53-12.08-33.22Z"/>
  <path class="cls-21" d="m220.28,157.66s14.02-5.46,30.91-2.12c10.76,2.12,18.47,12.24,18.47,12.24,0,0-1.25,11.57-4.08,15.68-2.83,4.12-8.49,14.69-22.65,12.99-14.16-1.7-19.82-10.76-22.65-17.55-2.83-6.79,0-21.23,0-21.23Z"/>
  <path class="cls-20" d="m180.09,202.12s26.41,4.62,36.98,1.5c6.04,5.56,5.37,15.26,3.52,22.46-2.12,8.27-10.14,10.62-10.14,10.62,0,0-21.13.9-25.1-8.16-3.96-9.06-3.77-17.72-.75-25"/>
  <path class="cls-20" d="m188.19,187.38s-1.51,4.53-.75,6.42"/>
  <path class="cls-20" d="m220.09,132.27s31.52-9.81,55.11,6.42"/>
  <path class="cls-20" d="m183.66,130.02s-14.34-18.04-45.68-10.82"/>
  <path class="cls-21" d="m152.14,189.46c.71-2.52-4.06-5.87-10.95-6-6.89-.13-11.89.81-11.99,5.06s5.57,4.81,9.25,4.72,12.27,1.23,13.68-3.77Z"/>
  <path class="cls-21" d="m239.72,204.29c2.19-2.11,8.92-3.17,15.43-2.75s10.26,3.11,10.48,6.65c.21,3.54-5.95,6.58-14.86,5.66-8.92-.92-15.64-5.12-11.04-9.57Z"/>
  <path class="cls-21" d="m228.11,233.82s-9.06,27.46-6.22,37.11c2.84,9.65,8.91,27.58,8.91,27.58,5.1,10.48,43.32,48.41,48.27,53.65s49.55,49.97,56.62,58.32c5.24-6.65,31.57-24.21,41.62-40.2,10.05-16,8.07-37.94,8.35-45.16-2.41-2.83-13.31-7.5-25.06-10.76s-58.32-22.65-64.27-24.49-4.81-6.37-5.66-9.77-18.83-42.11-18.97-44.59,3.15-3.78,5.25-6.04c2.11-2.26,3.69-8.36,3.69-8.36"/>
  <path class="cls-20" d="m163.28,243.63s-3.99,4.91-3.32,13.78c.68,8.87,1.62,43.98-1.45,54.31"/>
  <path class="cls-20" d="m168.75,291.19s-22.65,45.49-27.56,56.25-20.2,41.15-19.44,43.6,14.91,10.57,19.25,11.89c4.34,1.32,46.96,17.43,71.31,14.98"/>
  <path class="cls-21" d="m217.37,390.63s-25.3-1.29-29.46-6.76c1.32-10.19,6.7-42.28,6.7-42.28,0,0,49.81.42,67.47-6.87"/>
  <path class="cls-20" d="m218.27,381.89s-.83,8.54-1.3,11.94c7.17,2.45,65.51,7.51,64.08,3.97-3.68-9.11-1.7-34.5-1.7-38.27s-4.99-12.19-4.99-12.19"/>
  <path class="cls-21" d="m220.35,394.11s-20.83,62.05-22.53,65.44c6.79,2.64,29.44,15.48,30.29,16.8,5.95-9.81,34.64-77.39,34.64-77.39"/>
  <path class="cls-21" d="m197.82,459.56s-8.3,5.66-10.57,7.55-.94,3.96,3.4,6.42c4.34,2.45,24.91,12.46,27.18,12.46s5.66,3.77,10.29-9.63"/>
  <line class="cls-21" x1="204.55" y1="389.73" x2="214.83" y2="410.48"/>
  <path class="cls-21" d="m255.92,414.92s27.02-8.78,29.66-12.93c.38-6.79-.94-24.73-2.45-27.37-1.89-.19-4.29,0-4.29,0"/>
  <path class="cls-21" d="m283.13,374.62s8.87-3.13,10.76-1.47,5.28,18.08,4.53,24.12c-.75,6.04-.38,12.27-3.77,10.38s-9.06-5.66-9.06-5.66"/>
  <path class="cls-21" d="m149.97,145.71s-4.06,14.6-.29,25.78c3.77,11.17,20.19,7.92,22.93,1.74,2.75-6.18,4.35-21.39,2.1-25.83"/>
  <path class="cls-21" d="m121.75,391.04s35.86-53.98,43.79-68.89c7.93-14.91,15.85-33.41,17.55-36.05,1.7-2.64,17.94-34.16,11.45-51.15"/>
  <path class="cls-21" d="m94.43,178.89s4.72-1.13,9.11,2.83,43.84,29.04,43.84,29.04"/>
  <path class="cls-21" d="m195.83,248.82s5.36,2.12,5.16,4.67,1.92,15.71,2.63,17.84c1.84-13.31,3.68-20.1,6.23-21.66,2.55-1.56,15.14-6.79,15.14-6.79"/>
  <path class="cls-21" d="m208.01,251.94s6.08,6.94,6.79,11.89c4.25-3.26,7.42-6.72,7.42-6.72"/>
  <path class="cls-21" d="m200.99,253.49s-5.58,7.93-5.72,10.33c-1.87-2.82-1.69-3.45-1.69-3.45"/>
  <path class="cls-21" d="m203.62,271.33s8.29,52.35,14.89,69.72"/>
  <path class="cls-21" d="m180.54,291.19s6.45,19.73,6.24,21.8c-.21,2.08-4.53,7.45-4.18,9.72s12.01,18.87,12.01,18.87"/>
  <path class="cls-20" d="m197.96,313.94s12.45,7.5,29.32,9.77"/>
  <path class="cls-20" d="m215.94,313s13.67.27,21.7-4.99"/>
  <path class="cls-21" d="m298.42,397.27s10.65-5.93,20.99-4"/>
  <ellipse class="cls-21" cx="182.57" cy="275.44" rx="3.29" ry="2.03" transform="translate(-134.95 367.01) rotate(-72.55)"/>
  <ellipse class="cls-21" cx="170.93" cy="301.64" rx="3.29" ry="2.03" transform="translate(-168.09 374.25) rotate(-72.55)"/>
  <ellipse class="cls-21" cx="155.01" cy="330.78" rx="3.29" ry="2.03" transform="translate(-207.04 379.46) rotate(-72.55)"/>
  <path class="cls-21" d="m158.75,144.56s2.84,4.61,1.61,8-4.21,7.18-11.81,3.77"/>
  <path class="cls-21" d="m155.7,157.67s-2.01,10.34,1.69,13.72c4.54,4.15,11.2,2.47,13.34-4.55,2.14-7.02,1.7-16.69.57-21.13"/>
  <path class="cls-21" d="m234.91,154.66s-4.49,17.77.43,28.93c4.92,11.16,18.84,8.37,22.93,1.74,4.1-6.64,4.35-21.39,2.1-25.83"/>
  <path class="cls-21" d="m244.4,154.53s2.84,4.61,1.61,8-5.22,6.93-12.82,3.52"/>
  <path class="cls-21" d="m239.15,167.64s-.92,11.24,4.67,15.06c4.69,3.2,12.22.88,14.17-7.62.93-4.08,1.42-12.84.28-17.27"/>
  <path class="cls-20" d="m216.6,112.85s9.11.66,10.45,1.07"/>
  <path class="cls-20" d="m211.66,374.54s9.38-2.4,14.76,2.69"/>
</svg>