<?xml version="1.0" encoding="UTF-8"?>
<svg id="Layer_12" data-name="Layer 12" xmlns="http://www.w3.org/2000/svg" viewBox="0 0 200 200">
  <path d="m97.2,170.36c.62.06,1.25.2,1.87.18,12.38-.5,24.63-1.66,36.08-7.03,1.9-.89,3.93-1.54,5.93-2.2.77-.26,1.63-.25,2.45-.36.11.16.22.32.32.48-1.83,2.34-3.65,4.69-5.48,7.03.15.18.3.35.45.53.64-.16,1.37-.19,1.92-.52,2.47-1.45,4.89-2.98,7.31-4.51,2.24-1.41,4.44-2.89,6.69-4.29.56-.35,1.24-.53,1.86-.78.1.11.2.21.3.32-.5.84-1,1.67-1.57,2.62.39.26.82.54,1.37.91-1.25,1.4-2.43,2.71-3.62,4.03.06.1.12.21.18.31,1.12-.51,2.25-1.02,3.37-1.52.11.15.22.29.33.44-.54.7-.98,1.51-1.62,2.09-10.81,9.79-23.43,15.99-37.85,18.02-29.55,4.15-55.14-4.66-76.81-24.81-14.21-13.22-22.85-29.59-25.63-48.95-2.22-15.48-.98-30.56,4.93-45.13,3.6-8.88,8.9-16.72,15.08-23.95,6.56-7.67,14.24-14.06,23.02-19.11,9.16-5.26,18.93-8.74,29.38-10.3,15.36-2.3,30.21-.36,44.52,5.65,10.16,4.27,19.62,9.69,27.68,17.27,6.03,5.68,10.98,12.26,14.96,19.53,4.9,8.95,8.23,18.46,9.95,28.52,1.63,9.51,1.83,19.05.45,28.63-1.63,11.36-5.43,21.92-11.62,31.58-1.49,2.32-3.2,4.5-4.91,6.66-.37.46-1.16.59-1.75.87-.11-.66-.5-1.42-.29-1.95.74-1.9,1.38-3.95,2.59-5.54,6.9-9.03,10.08-19.43,11.52-30.47,1.4-10.67.94-21.29-1.21-31.84-.05-.26-.02-.59-.16-.79-.2-.27-.53-.44-.8-.65-.15.35-.49.74-.42,1.03,1.32,5.44,1.11,10.98.99,16.5-.18,8.2-.96,16.34-3.57,24.17-.74,2.21-2.03,4.26-3.22,6.3-.36.61-1.23.91-1.87,1.36-.19-.09-.38-.18-.57-.27.21-1.03.28-2.12.66-3.08,5.33-13.74,6.57-28.01,3.94-42.32-2.34-12.68-8.66-23.83-16.57-33.99-1.88-2.41-3.29-3.31-5.37-3.97,2.06,2.43,4.13,4.67,5.95,7.1,1.97,2.64,3.79,5.4,5.49,8.22.63,1.06.73,2.44,1.07,3.68-.22.1-.43.2-.65.3-.57-.73-1.21-1.42-1.7-2.2-3.98-6.24-8.46-12.06-14.06-16.95-11.24-9.83-24.12-16.01-39.01-18.13-29.58-4.21-58.87,12.74-71.36,37.14-5.65,11.03-8.08,22.78-7.42,35.16.82,15.42,5.88,29.3,15.35,41.51,4.59,5.92,10.61,10.14,16.88,14.08,10.5,6.59,22.15,9,34.32,9.57.86.04,1.75.05,2.57.27.43.11.94.6,1.06,1.02.07.26-.47.79-.84,1.04-.44.28-1.01.37-1.51.56-.44.17-.88.35-1.32.53,0,.14.01.28.02.41Zm49.97-128.8c-2.14-3.56-5.19-6.14-8.58-8.31-9.89-6.33-20.71-9.74-32.47-9.9-3.28-.05-6.57.35-9.85.65-.41.04-.77.68-1.15,1.05.46.17.9.44,1.37.48,1.02.08,2.06-.02,3.08.07,5.6.46,11.27.58,16.79,1.52,8.73,1.49,16.78,4.91,24.06,10.04,2.19,1.55,4.5,2.94,6.75,4.4Z"/>
  <path d="m100.18,119.35c19.01,0,29.26,7.26,32.85,10.15,3.14,2.53,17.66,14.52,21.56,31.49.56,2.42-3.21,3.7-3.15,6.32-1.32.92.87,3.43-1.59,4.85-16.61,9.57-57.91,26.12-105.51-9.07,6.43-14.92,18.3-43.74,55.84-43.74Z"/>
  <circle cx="99.94" cy="81.01" r="32.93"/>
</svg>