<?xml version="1.0" encoding="utf-8"?>
<!-- Generator: Adobe Illustrator 27.4.0, SVG Export Plug-In . SVG Version: 6.00 Build 0)  -->
<svg version="1.1" xmlns="http://www.w3.org/2000/svg" xmlns:xlink="http://www.w3.org/1999/xlink" x="0px" y="0px"
	 viewBox="0 0 200 200" style="enable-background:new 0 0 200 200;" xml:space="preserve">
<style type="text/css">
	.st0{display:none;}
	.st1{display:inline;opacity:0.3;}
	.st2{display:inline;}
	.st3{fill:#C80D1E;}
	.st4{fill:#070707;}
	.st5{fill:#FFD177;}
	.st6{fill:#D9D9D9;}
	.st7{fill:#ABE4E2;}
	.st8{fill:#FFB700;}
	.st9{fill:#FF8268;}
	.st10{fill:none;stroke:#FDFDFD;stroke-width:1.1007;stroke-linecap:round;stroke-miterlimit:10;}
	.st11{fill:#61B5AE;}
	.st12{fill:#EA9D00;}
	.st13{fill:none;stroke:#FDFDFD;stroke-width:1.1007;stroke-linecap:round;stroke-linejoin:round;stroke-miterlimit:10;}
	.st14{fill:#5B5958;}
	.st15{fill:none;stroke:#535353;stroke-width:1.1007;stroke-linecap:round;stroke-miterlimit:10;}
	.st16{fill:none;stroke:#000000;stroke-width:1.1007;stroke-miterlimit:10;}
	.st17{fill:none;stroke:#070707;stroke-width:1.1007;stroke-miterlimit:10;}
	.st18{fill:#F1181C;}
	.st19{fill:#B9CA6E;}
	.st20{fill:#FF89A8;}
	.st21{fill:#0034D7;}
	.st22{fill:none;stroke:#E3C400;stroke-width:1.1007;stroke-linecap:round;stroke-linejoin:round;stroke-miterlimit:10;}
	.st23{stroke:#000000;stroke-linecap:round;stroke-linejoin:round;stroke-miterlimit:10;}
	.st24{fill:#FAE9D8;}
	.st25{fill:none;stroke:#000000;stroke-width:1.5155;stroke-miterlimit:10;}
	.st26{fill:#CB9652;}
	.st27{fill:#956F33;}
	.st28{fill:none;stroke:#000000;stroke-miterlimit:10;}
	.st29{display:inline;fill:#FFFFFF;}
	.st30{fill:#FFFFFF;}
</style>
<g id="Profile" class="st0">
	<g class="st1">
		<path d="M9.39,100.01c0.37-51.14,41.74-91.3,92-90.61c50.11,0.69,90.15,42.49,89.2,92.14c-0.99,52.15-44.6,90.25-92.71,89.05
			C48.76,189.36,9.5,149.19,9.39,100.01z M152.66,163.01c25.1-21.03,37.19-56.93,24.11-92.02c-13.52-36.28-49.53-57.16-87.51-52.32
			c-36.57,4.66-66.51,33.69-70.78,72.4c-2.06,18.65,2.03,36.05,11.66,52.12c4.55,7.6,10.4,14.12,17.13,19.77
			c11-22.03,28.06-35.05,52.84-35.05C124.91,127.9,142.03,140.85,152.66,163.01z"/>
		<path d="M99.98,122.49c-18.25,0.02-32.89-14.74-32.91-33.16c-0.02-17.79,14.99-32.75,32.95-32.82
			c17.94-0.07,32.94,14.98,32.95,33.08C132.98,107.83,118.3,122.47,99.98,122.49z"/>
	</g>
</g>
<g id="Home" class="st0">
	<g class="st2">
		<path class="st3" d="M182.77,114.06c0,20.95-7.78,40.08-20.61,54.66c-13.61,0-37.4,0-62.16,0c-24.77,0-42.85,0-62.16,0
			C25.01,154.13,17.23,135,17.23,114.06c0-45.71,37.06-82.77,82.77-82.77S182.77,68.34,182.77,114.06z"/>
		<path class="st4" d="M191.85,161.23c-3.8,0-29.58,0-32.55,0c-2.97,0-4.16-0.36-4.16-3.09c0-2.73,0-20.91,0-23.88
			s1.9-4.16,4.04-4.16s5.47,0,5.47,0v-7.37h-9.5v-7.49c0,0,7.37,0,9.86,0s3.33-0.24,5.23-1.9c1.9-1.66,3.33-5.11,1.9-5.11
			c-1.43,0-42.77,0-42.77,0s0-5.94,0-7.96c0-2.02,2.02-1.78,3.92-1.78s17.7,0,17.7,0v-7.96h-21.5c0,0,0-2.73,0-5.82
			c0-3.09,2.5-4.28,4.51-4.28c2.02,0,5.7,0,12,0c6.3,0,7.13-0.83,8.32-2.02s3.68-5.11,2.02-5.11c-1.66,0-56.32,0-56.32,0
			s-54.66,0-56.32,0c-1.66,0,0.83,3.92,2.02,5.11s2.02,2.02,8.32,2.02c6.3,0,9.98,0,12,0c2.02,0,4.51,1.19,4.51,4.28
			c0,3.09,0,5.82,0,5.82h-21.5v7.96c0,0,15.8,0,17.7,0s3.92-0.24,3.92,1.78c0,2.02,0,7.96,0,7.96s-41.35,0-42.77,0
			c-1.43,0,0,3.45,1.9,5.11c1.9,1.66,2.73,1.9,5.23,1.9s9.86,0,9.86,0v7.49h-9.5v7.37c0,0,3.33,0,5.47,0s4.04,1.19,4.04,4.16
			s0,21.15,0,23.88c0,2.73-1.19,3.09-4.16,3.09c-2.97,0-28.75,0-32.55,0c-3.8,0-7.37,2.73-7.37,7.49c4.28,0,99.21,0,99.21,0
			s94.94,0,99.21,0C199.21,163.96,195.65,161.23,191.85,161.23z M77.78,79.96h18.89v10.57H77.78V79.96z M70.77,157.9
			c0,3.21-1.31,3.56-3.33,3.56c-2.02,0-10.57,0-12.71,0s-2.49-2.5-2.49-3.8s0-27.86,0-27.86s7.96,0,12.24,0s6.3,2.08,6.3,4.69
			C70.77,137.11,70.77,154.69,70.77,157.9z M70.77,123.21H52.23v-7.96c0,0,12.48,0,14.49,0s4.04,1.9,4.04,3.56
			C70.77,120.47,70.77,123.21,70.77,123.21z M122.22,158.61c0,2.02-0.59,2.85-2.97,2.85s-19.25,0-19.25,0s-16.88,0-19.25,0
			s-2.97-0.83-2.97-2.85s0-60.48,0-60.48H100h22.22C122.22,98.14,122.22,156.59,122.22,158.61z M122.22,90.53h-18.89V79.96h18.89
			V90.53z M147.77,157.66c0,1.31-0.36,3.8-2.49,3.8s-10.69,0-12.71,0c-2.02,0-3.33-0.36-3.33-3.56c0-3.21,0-20.79,0-23.41
			c0-2.61,2.02-4.69,6.3-4.69s12.24,0,12.24,0S147.77,156.36,147.77,157.66z M147.77,123.21h-18.53c0,0,0-2.73,0-4.4
			c0-1.66,2.02-3.56,4.04-3.56s14.49,0,14.49,0V123.21z"/>
	</g>
</g>
<g id="Learn" class="st0">
	<g class="st2">
		<path class="st5" d="M3.33,84.12c0,0-3.18,0.85-1.72,3.86c2.07,3.03,52.59,74.29,52.59,74.29s2.16,1.81,3.08,1.12
			c0.92-0.69,3.35-3.69,4.25-4.28c0.91-0.59,28.82-10.89,36.43-12.44s23.35-3.7,26.81-4.06c3.46-0.36,5.22,1.23,7.01,1.67
			c1.8,0.44,3.64,0.31,5.38-0.2c1.73-0.51,8-2.5,8.71-3.14s1.42-2.66,1.5-3.94c1.2-1.62,5.72-6,7.87-7.06
			c2.14-1.05,12.87-4.85,19.9-6.11c7.03-1.26,14.02-0.49,15.8-0.36c1.77,0.13,6.69,1.43,4.75-4.02c-0.89-5.06-31.5-12.25-31.5-12.25
			L3.33,84.12z"/>
		<path class="st6" d="M77.55,58.3c0,0-9.29-4.28-34.85-1.85S9.02,66.53,4.83,74.12c-0.86,1.32-2.48,7.72-1.5,10
			c1.81,2.58,51.33,73.96,51.33,73.96s27.07-10.27,28.95-10.97c1.88-0.7,26.93-8.47,33.71-8.89c6.78-0.42,13.94-0.63,15.59,2.51
			c3.44-1.45,6.8-2.62,8.72-2.62c1.39-3.39,5.02-9.95,9.37-11.82c4.35-1.87,26.03-9.28,44.69-6.84c1.51-2.64,4.53-7.67,2.05-8.98
			c-2.85-3.36-62.64-72.32-62.64-72.32s-21.9-1.6-36.06,3.41S77.55,56.51,77.55,58.3z"/>
		<path class="st7" d="M10.81,66.72l-3.36-5.81l9.82-10.17l15.8,0.64l3.72,5.75C36.79,57.13,21.84,57.93,10.81,66.72z"/>
		<path class="st8" d="M82.59,51.61c0,0-2.95-4.82-3.29-5.39c-0.35-0.57,0.57-1.74,0.92-2.4c0.35-0.65,2.88-5.1,3.05-5.45
			c0.17-0.35,0.31-0.87,2.35-1c2.05-0.13,9.98-0.87,10.64-0.92c0.65-0.04,1.44,0.31,2.09,1c0.65,0.7,3.13,3.2,3.13,3.2
			S90.85,44.19,82.59,51.61z"/>
		<path class="st9" d="M181.48,123.1l17.04,16.94l-28.55,6.41l-14.12-16.82C155.84,129.62,172.23,122.73,181.48,123.1z"/>
		<line class="st10" x1="10.88" y1="59.85" x2="18.21" y2="52.41"/>
		<line class="st10" x1="22.02" y1="52.23" x2="31.27" y2="53.13"/>
		<path class="st11" d="M8.29,59.71c0,0,1.8,0.97,2.23,1.68c0.44,0.72,0.7,2.03,1.33,1.74c0.63-0.28,5.36-3.77,10.75-5.12
			s8.98-2.11,10.24-2.18c1.26-0.07,2.18,0.15,1.57,1.35c-1.83,0.54-16.3,2.42-23.69,9.26c-1.48-2.48-3.38-5.67-3.38-5.67L8.29,59.71
			z"/>
		<path class="st12" d="M81.24,49.41c0,0,4.05-4.88,7.39-6.61c3.33-1.73,7.68-3.4,9.45-3.76c1.77-0.36,1.89,0.1,2.36,0.58
			c0.47,0.48,0.84,1.11,0.84,1.11S87.11,46.2,82.73,51.48C81.6,50,81.24,49.41,81.24,49.41z"/>
		<polyline class="st13" points="158.79,128.31 170.92,143.11 192.37,138.14 177.53,123.46 		"/>
		<polyline class="st13" points="162.42,127.06 171.84,139.12 185.22,136.24 175.05,124.23 		"/>
		<path class="st14" d="M68.79,63.53c0,0-6.41-1.31-11.57-1.31S41,63.13,32.56,65.1s-16.94,8.63-16.94,8.63
			c-1.11,0.78-2.03,1.11-0.98,2.42c1.05,1.31,2.03,2.74,2.75,2.65s12.49-3.56,14.84-4.28c2.35-0.72,15.19-3.79,18.03-4.45
			c2.83-0.65,8.78-1.31,12.71-1.31s6.15,0.26,6.8,0c0.65-0.26,0.92-1.77,0-3.66L68.79,63.53z"/>
		<path class="st14" d="M121.62,75.43c-3.1,0.09-9.59,2.48-11.73,3.56c-2.14,1.07-5.54,4.18-5.54,4.18l-9.37-13.18
			c0,0,7.8-5.93,11.68-6.54c3.88-0.61,5.14-1.05,6.41,0.78c1.26,1.83,8.37,9.5,8.37,9.5L121.62,75.43z"/>
		<path class="st15" d="M4.83,78.79L54.14,152c0,0,21.4-9.26,23.41-9.44c2.01-0.17,5.32-0.96,6.45-1.92s22.58-7.06,27.46-7.15
			c4.88-0.09,21.45,0.52,24.5,1.83c3.05,1.31,2.96-1.31,4.01-3.23s8.37-9.33,13.86-11.68c5.49-2.35,15.34-6.63,20.84-7.15
			c5.49-0.52,16.39-0.54,17.53-0.63c1.13-0.09,4.84,0.36,5.01,0.54"/>
		<path class="st15" d="M195.55,116.54c-1.26-0.22-17.18-0.7-19.44-0.44c-2.27,0.26-9.46,2.01-13.47,3.71
			c-4.01,1.7-9.9,3.31-11.46,4.53c-1.57,1.22-8.76,7.26-10.24,9.82c-1.48,2.56-0.74,3.43-5.23,2.78c-4.49-0.65-11.73-2.53-18.4-1.31
			s-26.33,7.76-29.56,8.02c-3.23,0.26-6.45,0.35-8.81,0.96c-2.35,0.61-25,10.85-25,10.85L5.36,82.53"/>
		<path class="st15" d="M20.92,85.28c0,0,3.88-3.1,9.46-4.62s15.3-2.96,17.61-2.96"/>
		<path class="st15" d="M22.94,89.77c0,0,3.88-3.1,9.46-4.62c5.58-1.53,13.28-2.96,15.59-2.96"/>
		<path class="st15" d="M28.29,97.27c0,0,6.76-3.6,8.76-4.18c2.01-0.57,8.68-2.71,13.21-3.32"/>
		<path class="st15" d="M31.6,100.84c0,0,2.05-2.31,4.36-3.14c2.31-0.83,6.67-2.35,7.63-2.7c0.96-0.35,3.4-1.35,4.1-1.18"/>
		<path class="st15" d="M74.42,91.45c0,0,4.91-1.16,7.66-1.38s6.54-0.39,7.89-0.48"/>
		<path class="st15" d="M76.3,96.62c0,0,4.91-1.16,7.66-1.38c2.75-0.22,6.54-0.39,7.89-0.48"/>
		<path class="st15" d="M83.61,98.27c0,0,6.58-1.53,11.12-1.13"/>
		<path class="st15" d="M101.02,121.89c0,0,8.21-0.72,14.09-0.29"/>
		<path class="st15" d="M128.09,44.3c0,0-8.83-0.07-12.75,0.78c-3.92,0.85-12.88,3.2-17,5.75c-4.12,2.55-8.89,4.64-11.51,8.57"/>
		<path class="st15" d="M91.67,63.85c0,0,7-7,15.1-9.81s15.37-4.12,19.16-4.32"/>
		<path class="st15" d="M136.57,115.84c0,0,4.8-6.6,14.67-10.4s18.96-6.6,23.02-6.87"/>
		<path class="st15" d="M180.93,104.26c0,0-10.92,0.46-14.25,1.37c-3.33,0.92-14.84,5.62-16.67,6.74s-8.37,5.75-9.35,7.98"/>
		<path class="st10" d="M73.28,87.2c0,0,7.24-3.18,11.94-3.07"/>
		<path class="st10" d="M33.34,107.21c0,0,11.77-7.63,13.6-5.19"/>
		<path class="st10" d="M35.83,110.39c0,0,8.15-4.49,8.59-4.71"/>
		<path class="st10" d="M105.97,86.11c0,0,7.37-4.88,8.98-5.54c1.61-0.65,5.19-1.22,5.89-1.09"/>
		<path class="st10" d="M108.17,88.98c0,0,6.69-4.21,8.31-4.86c1.61-0.65,4.45-1.07,5.14-0.93"/>
		<path class="st10" d="M69.77,65.1c0.92,1.9,0.65,3.4,0,3.66c-0.65,0.26-2.88,0-6.8,0s-9.87,0.65-12.71,1.31
			c-2.83,0.65-15.67,3.73-18.03,4.45c-2.35,0.72-14.12,4.18-14.84,4.28s-1.7-1.34-2.75-2.65c-1.05-1.31-0.13-1.63,0.98-2.42
			c0,0,8.5-6.67,16.94-8.63s19.49-2.88,24.65-2.88s11.57,1.31,11.57,1.31"/>
		<path class="st13" d="M121.62,75.43c-3.1,0.09-9.59,2.48-11.73,3.56c-2.14,1.07-5.54,4.18-5.54,4.18l-9.37-13.18
			c0,0,7.8-5.93,11.68-6.54c3.88-0.61,5.14-1.05,6.41,0.78c1.26,1.83,8.37,9.5,8.37,9.5"/>
		<path class="st16" d="M77.55,58.3c0,0-4.84-3.79-33.35-1.96S6.67,69.02,4.83,74.12c4.05,6.41,49.3,75.07,49.3,75.07
			s26.16-11.25,30.6-12.55c4.45-1.31,31.56-10.59,51.83-3.14c4.18-5.75,12.9-15.56,25.07-19.22c12.16-3.66,24.59-4.97,36.09-3.79
			c-4.97-6.02-62.64-72.32-62.64-72.32s-23.41-0.52-31.91,1.96S81.34,49.8,77.55,58.3z"/>
		<path class="st16" d="M4.83,74.12c0,0-2.68,2.35-1.5,10c4.38,6.21,51.33,73.96,51.33,73.96s32.96-12.55,36.75-13.86
			s36.53-11.25,41.5-3.49c2.18-0.87,3.49-1.92,8.72-2.62c0.96-3.66,5.23-10.9,12.9-13.43c7.67-2.53,26.32-6.89,41.15-5.23
			c1.57-2.27,4.73-8.75,2.05-8.98"/>
		<path class="st16" d="M195.68,119.46c0,0,1.57,3.57-1.31,4.1c-2.88,0.52-10.03-2.09-22.84,1.05s-16.74,4.88-20.75,8.63
			c-4.01,3.75-3.4,3.57-3.57,5.06c-0.17,1.48-0.26,2.44-3.05,3.49s-8.28,2.88-10.11,2.96s-5.67-2.01-7.67-2.18
			c-2.01-0.17-22.84,2.27-30.86,4.8c-8.02,2.53-29.47,9.59-32.17,10.72c-2.7,1.13-4.71,3.84-5.14,4.62c-0.44,0.78-2.7,1.05-3.66,0
			c-0.96-1.05-52.05-73.15-52.92-74.72c-0.87-1.57,0.04-3.71,1.72-3.86"/>
		<line class="st16" x1="77.55" y1="58.3" x2="136.57" y2="133.49"/>
		<path class="st17" d="M10.59,66.72c0,0-2.88-5.29-3.14-5.81c-0.26-0.52,8.3-8.83,9.06-9.55c0.75-0.72,0.52-0.85,3.92-0.82
			S31.91,51.2,32.4,51.2s1.05,0.2,1.77,1.44c0.72,1.24,2.63,4.42,2.63,4.42"/>
		<path class="st17" d="M82.59,51.61c0,0-2.95-4.82-3.29-5.39c-0.35-0.57,0.57-1.74,0.92-2.4c0.35-0.65,2.88-5.1,3.05-5.45
			c0.17-0.35,0.31-0.87,2.35-1c2.05-0.13,9.98-0.87,10.64-0.92c0.65-0.04,1.44,0.31,2.09,1c0.65,0.7,3.13,3.2,3.13,3.2"/>
		<polyline class="st17" points="155.84,129.62 169.97,146.44 198.52,140.03 181.48,123.1 		"/>
		<path class="st13" d="M133.35,112.74c0,0,9.42-7.85,17.61-10.99s14.91-5.3,16.74-5.13"/>
		<path class="st18" d="M137.27,58.3c-1.48-1.57-4.53-2.57-7.24-2.66c-2.7-0.09-6.36-0.26-6.89,0s-1.7,0.96-1.83,2.66
			c0,0-0.87-0.13-1.26,0.61c-0.39,0.74-1.44,3.62-1.44,5.27c0,1.66,0.26,2.18,1.05,3.18c0.78,1,21.45,29.16,21.45,29.16l21.62-7.37
			C162.73,89.16,138.75,59.87,137.27,58.3z M126.55,61.74c-1.46,0.84-3.05,0.82-3.56-0.06c-0.51-0.88,0.27-2.27,1.73-3.11
			c1.46-0.84,3.05-0.82,3.56,0.06C128.78,59.51,128.01,60.9,126.55,61.74z"/>
		<path class="st19" d="M86.53,102.11l-13.44,2.67l-2.72,17.32l26.7,40.43l26.33-9.68L86.53,102.11z M80.03,110.98
			c-2,0.67-3.92,0.35-4.27-0.72c-0.35-1.06,0.99-2.46,2.99-3.13c2-0.67,3.92-0.35,4.27,0.72S82.04,110.32,80.03,110.98z"/>
		<path class="st20" d="M67.35,86.06l-7.32-1.22L50.17,94l-11.94,64.43l25.81,4.1l10.2-65.04L67.35,86.06z M66.73,90.93
			c-0.25,1.38-2.12,2.19-4.19,1.82c-2.06-0.38-3.53-1.8-3.28-3.18c0.25-1.38,2.12-2.19,4.19-1.82
			C65.52,88.13,66.99,89.55,66.73,90.93z"/>
		<path class="st13" d="M48.6,102.5c0,0,2.34,0.85,3.19,3.46c0.85,2.62,0.98,5.89-5.17,7.98"/>
		<path class="st13" d="M48.62,113.11c0,0,5.42,0.27,6.92,2.01c-1.7,0.88-7.72,2.03-8.93-0.39"/>
		<path class="st13" d="M45.98,116.62c0,0,1.2,2.68,2.08,3.37c0.16-1.44-0.05-3.61-0.24-4.22"/>
		<path class="st13" d="M48.11,104.62c0,0,1.35,1.54,0.92,3.6c-0.43,2.06-1.99,4.18-1.99,4.18"/>
		<path class="st13" d="M69.54,98.9c0,0-2.48,1.02-2.78,3.6"/>
		<path class="st13" d="M73.59,100.44c0,0-2.26-0.78-3.73,0.26c-1.47,1.04-2.62,3.5-2.62,5.69c0,2.19,0.75,4.87,2.48,5.66
			c-0.59,1.14-1.8,2.68-1.59,4.94c1.68-0.92,3.17-3.07,3.62-3.77"/>
		<path class="st13" d="M67.49,108.57c0,0-2.2-2.31-3.9-3.33c0.23,1.9,1.05,3.43,1.83,3.92"/>
		<path class="st13" d="M68.28,110.64c0,0-3.81-0.49-5.61,1.76c1.28,0.62,4.49,0.83,6.46,0.71"/>
		<path class="st13" d="M73.49,102.25c0,0-1.6-0.4-2.51,0.55c-0.92,0.95-1.18,3.27-1.14,4.32c0.03,1.05-0.03,3.73,0.72,3.89"/>
		<path class="st13" d="M52.37,131.47c0,0-2.45-1.11-5.49-0.56c0.49,1.6,1.96,4.35,7.13,4.54c-2.58-0.03-4.81,0.62-6.24,3.76
			c2.22,0.69,5.62,0.78,6.54,0.72c0.92-0.07,3.66-1.05,5.07-2.75c0.59,1.05,2.19,4.48,6.08,4.35c0.59-1.63,0.07-4.71-3.76-4.87
			c3.33-0.29,6.05-1.48,7.13-4.65c-0.82-0.13-3.04,1.08-3.63,1.57c-0.59,0.49-2.32,0.16-2.52,0c1.01-0.95,2.58-3.14,2.45-6.83
			c-0.13-3.69-1.54-5.53-2.03-5.89c-1.08,0.82-3.92,3.43-4.09,6.18c-2.03-2.22-3.79-3.99-4.38-4.05c-0.07,1.05-0.43,2.09-0.72,2.62
			C53.62,126.14,51.85,128.26,52.37,131.47z"/>
		<path class="st13" d="M52.37,131.47c0,0,1.44,3.99,3.69,4.38c2.26,0.39,3.04,0.62,4.09-0.16c1.05-0.78,2.52-2.09,2.52-2.09"/>
		<path class="st13" d="M54.51,123.9c0,0,0.48,5.15,0.97,6.46s2.62,4.71,4.68,5.33c0.88-1.99,0.23-6.6-1.14-8.63"/>
		<path class="st13" d="M54.63,125.1c0,0,5.19,6.47,4.43,10.02"/>
		<path class="st13" d="M61.69,131.21c-0.7-5.37,1.75-9.87,1.75-9.87s1.36,7.51-1.35,12.5"/>
		<path class="st13" d="M64.44,119.99c0,0,1.67,1.18,1.8,2.71"/>
		<path class="st13" d="M65.12,126.76c0,0,1.54-1.86,3.47-1.28"/>
		<path class="st13" d="M41.62,140.11c0,0,3.36,0.36,4.23,2.58c0.87,2.22,0.83,6.15-1,7.67c2.62,0.26,5.62,0.96,6.58,4.05
			c-2.96,0.04-9.33,0-9.33,0s1.22,1.66,1.13,3.75c-2.01-0.92-3.99-2.31-4.41-2.97"/>
		<path class="st13" d="M41.28,141.96c0,0,2.44,1.65,2.05,3.83c-0.39,2.18-1.22,6.5-3.62,7.06c1.44,0.31,2.4,1.57,2.4,1.57"/>
		<path class="st13" d="M44.85,150.36c0,0-3.09,2.36-4.4,2.74"/>
		<path class="st13" d="M66.68,145.65c0,0-2.82,1.34-3.43,3.49c-0.61,2.14-0.55,4.92,0.53,6.54c-2.14-0.22-4.54-0.17-6.5,2.18
			c2.22,0.44,5.06,0.61,7.24,0"/>
		<g>
			<path class="st21" d="M71.32,117.25c-0.02-0.46,0-0.92,0.1-1.35c0.04-0.2-0.07-0.53,0.18-0.57c0.16-0.06,0.91-0.04,1.29,0.32
				c0.36,0.52,0.43,0.82,0.42,1.05c0.01,0.25-0.33,0.21-0.52,0.3c-0.41,0.19-0.84,0.31-1.3,0.39
				C71.4,117.4,71.32,117.34,71.32,117.25L71.32,117.25z"/>
		</g>
		<g>
			<path class="st21" d="M71.68,118.13c0.53-0.23,1.08-0.36,1.66-0.34c0.28,0.01,0.67-0.14,0.87,0.16c0.19,0.22,0.44,1.01-0.02,1.44
				c-0.57,0.26-0.84,0.44-1.05,0.48c-0.21,0.07-0.26-0.27-0.42-0.43l-1.07-1.09C71.57,118.28,71.59,118.17,71.68,118.13
				L71.68,118.13z"/>
		</g>
		<g>
			<path class="st21" d="M71.23,119.48c0.45,0.1,0.87,0.24,1.26,0.45c0.18,0.1,0.52,0.08,0.5,0.32c0.01,0.17-0.22,0.88-0.67,1.15
				c-0.6,0.2-0.9,0.19-1.13,0.12c-0.24-0.06-0.11-0.37-0.14-0.58c-0.06-0.44-0.05-0.89,0-1.34
				C71.06,119.52,71.14,119.46,71.23,119.48L71.23,119.48z"/>
		</g>
		<g>
			<path class="st21" d="M81.07,121.21c-0.55,0.04-1.1,0.06-1.64,0.04c-0.25-0.01-0.56,0.18-0.69-0.04
				c-0.16-0.19-0.23-0.55-0.38-1.15c0.08-0.63,0.84-0.91,1.1-0.93c0.34-0.05,0.49,0.32,0.69,0.51c0.42,0.4,0.75,0.86,1.03,1.38
				C81.22,121.1,81.16,121.2,81.07,121.21L81.07,121.21z"/>
		</g>
		<g>
			<path class="st21" d="M82.02,120.43c-0.27-0.57-0.51-1.15-0.7-1.73c-0.09-0.28-0.38-0.55-0.23-0.82
				c0.13-0.27,0.37-0.54,0.93-0.89c0.57-0.13,1.18,0.6,1.27,0.81c0.17,0.31-0.12,0.62-0.21,0.92c-0.2,0.61-0.49,1.18-0.85,1.73
				C82.18,120.53,82.06,120.52,82.02,120.43L82.02,120.43z"/>
		</g>
		<g>
			<path class="st21" d="M83.36,120.79c0.01-0.42,0.09-0.82,0.3-1.18c0.09-0.17,0.11-0.52,0.38-0.46c0.21,0.01,0.8,0.36,0.91,0.91
				c0.01,0.59,0.07,0.92,0.05,1.07c0,0.18-0.23-0.02-0.38-0.04c-0.15-0.01-0.32-0.03-0.5-0.05
				C83.88,120.98,83.34,121.03,83.36,120.79L83.36,120.79z"/>
		</g>
		<g>
			<path class="st21" d="M81.84,121.98c0.31,0.31,0.59,0.64,0.82,0.99c0.1,0.16,0.41,0.3,0.26,0.47c-0.13,0.18-0.35,0.33-0.91,0.61
				c-0.52,0.18-1.17-0.24-1.28-0.38c-0.18-0.18,0.09-0.39,0.17-0.58c0.17-0.4,0.42-0.77,0.72-1.11
				C81.68,121.93,81.78,121.92,81.84,121.98L81.84,121.98z"/>
		</g>
		<g>
			<path class="st21" d="M78.48,131.55c-0.42,0.06-0.82,0.09-1.21,0.05c-0.18-0.02-0.47,0.13-0.49-0.1
				c-0.04-0.21-0.02-0.51,0.19-1.1c0.25-0.45,0.91-0.71,1.07-0.7c0.23-0.03,0.19,0.31,0.27,0.48c0.17,0.37,0.26,0.78,0.31,1.2
				C78.63,131.47,78.56,131.54,78.48,131.55L78.48,131.55z"/>
		</g>
		<g>
			<path class="st21" d="M79.64,131.21c-0.3-0.31-0.57-0.65-0.77-1.01c-0.09-0.17-0.38-0.34-0.22-0.51c0.09-0.13,0.7-0.55,1.21-0.51
				c0.61,0.17,0.84,0.34,0.99,0.51c0.16,0.17-0.13,0.34-0.22,0.51c-0.2,0.37-0.47,0.7-0.77,1.01
				C79.8,131.27,79.7,131.27,79.64,131.21L79.64,131.21z"/>
		</g>
		<g>
			<path class="st21" d="M80.76,132.23c0.17-0.49,0.42-0.93,0.79-1.29c0.17-0.17,0.32-0.53,0.63-0.45c0.26,0.03,0.89,0.47,0.88,1.06
				c-0.16,0.6-0.22,0.9-0.32,1.07c-0.08,0.19-0.31-0.04-0.51-0.06l-0.62-0.07C81.4,132.41,80.71,132.54,80.76,132.23L80.76,132.23z"
				/>
		</g>
		<g>
			<path class="st21" d="M79.5,132.67c0.17,0.32,0.33,0.64,0.47,0.94c0.05,0.14,0.31,0.3,0.14,0.33c-0.16,0.06-0.4,0.02-1,0.15
				c-0.55,0.12-1.1-0.42-1.15-0.59c-0.12-0.22,0.2-0.31,0.34-0.42c0.29-0.25,0.64-0.4,1.01-0.51
				C79.38,132.56,79.46,132.6,79.5,132.67L79.5,132.67z"/>
		</g>
		<g>
			<path class="st21" d="M80.89,133.5c0.53,0.03,1.03,0.12,1.51,0.33c0.23,0.1,0.61,0.08,0.66,0.4c0.06,0.23-0.01,1-0.55,1.27
				c-0.6,0.1-0.94,0.18-1.15,0.13c-0.23-0.02-0.13-0.35-0.21-0.56c-0.07-0.2-0.14-0.42-0.21-0.66
				C80.94,134.19,80.55,133.55,80.89,133.5L80.89,133.5z"/>
		</g>
		<g>
			<path class="st21" d="M86.99,124.66c0.25,0.32,0.49,0.65,0.7,0.98c0.09,0.15,0.38,0.27,0.23,0.4c-0.14,0.14-0.36,0.26-0.93,0.54
				c-0.53,0.17-1.17-0.22-1.27-0.39c-0.18-0.2,0.11-0.4,0.21-0.58c0.2-0.39,0.5-0.71,0.85-0.98
				C86.84,124.58,86.93,124.59,86.99,124.66L86.99,124.66z"/>
		</g>
		<g>
			<path class="st21" d="M91.01,132.94c-0.49-0.22-0.97-0.46-1.42-0.71c-0.21-0.12-0.56-0.09-0.57-0.33
				c-0.03-0.25,0.04-0.51,0.19-1.14c0.24-0.54,1.21-0.49,1.4-0.38c0.33,0.11,0.28,0.51,0.37,0.77c0.18,0.54,0.24,1.1,0.21,1.68
				C91.19,132.92,91.09,132.98,91.01,132.94L91.01,132.94z"/>
		</g>
		<g>
			<path class="st21" d="M90.2,133.95l-0.87,0.93c-0.12,0.13-0.14,0.44-0.29,0.34c-0.14-0.06-0.38-0.34-0.9-0.62
				c-0.45-0.43-0.24-1.16-0.06-1.36c0.19-0.27,0.53-0.08,0.77-0.05c0.49,0.06,0.93,0.26,1.34,0.55
				C90.25,133.78,90.26,133.89,90.2,133.95L90.2,133.95z"/>
		</g>
		<g>
			<path class="st21" d="M91.83,134.53c0.26,0.41,0.49,0.84,0.68,1.27c0.09,0.2,0.38,0.38,0.22,0.55c-0.14,0.19-0.37,0.29-0.91,0.63
				c-0.48,0.29-1.24-0.37-1.29-0.54c-0.17-0.25,0.12-0.49,0.22-0.71c0.21-0.46,0.51-0.87,0.86-1.24
				C91.67,134.44,91.78,134.46,91.83,134.53L91.83,134.53z"/>
		</g>
		<g>
			<path class="st21" d="M93.03,134.08c0.26-0.41,0.57-0.77,0.97-1.04c0.19-0.13,0.38-0.45,0.65-0.31c0.21,0.09,0.77,0.53,0.65,1.15
				c-0.3,0.46-0.38,0.94-0.5,1.04c-0.11,0.17-0.29-0.1-0.47-0.16c-0.41-0.13-0.82-0.3-1.24-0.48
				C93.02,134.25,92.99,134.16,93.03,134.08L93.03,134.08z"/>
		</g>
		<g>
			<path class="st21" d="M92.3,132.64c-0.37-0.32-0.65-0.71-0.76-1.19c-0.06-0.23-0.28-0.58,0-0.8c0.24-0.21,0.68-0.39,1.23-0.07
				c0.07,0.04,0.11,0.1,0.14,0.17c0.3,0.56,0.54,0.67,0.64,0.78c0.13,0.09-0.16,0.09-0.28,0.2c-0.11,0.1-0.23,0.23-0.36,0.38
				C92.75,132.21,92.56,132.79,92.3,132.64L92.3,132.64z"/>
		</g>
		<g>
			<path class="st21" d="M92.6,119.44c-0.51,0.25-1.03,0.47-1.54,0.65c-0.24,0.08-0.47,0.37-0.68,0.22
				c-0.24-0.13-0.35-0.38-0.75-0.87c-0.34-0.45,0.31-1.17,0.65-1.33c0.3-0.17,0.58,0.12,0.85,0.22c0.55,0.21,1.04,0.52,1.5,0.9
				C92.7,119.28,92.68,119.39,92.6,119.44L92.6,119.44z"/>
		</g>
		<g>
			<path class="st21" d="M93.66,120.44c0.27,0.3,0.52,0.6,0.72,0.92c0.09,0.14,0.38,0.27,0.22,0.39c-0.14,0.14-0.38,0.19-0.94,0.45
				c-0.52,0.24-1.17-0.24-1.26-0.38c-0.17-0.18,0.12-0.36,0.22-0.52c0.21-0.35,0.5-0.63,0.82-0.89
				C93.5,120.37,93.6,120.38,93.66,120.44L93.66,120.44z"/>
		</g>
		<g>
			<path class="st21" d="M94.52,119.67c0.45-0.09,0.89-0.11,1.33,0c0.21,0.05,0.57-0.02,0.62,0.27c0.08,0.39,0,0.85-0.42,1.15
				c-0.05,0.04-0.16,0.04-0.21,0.05c-0.61,0.1-0.78,0.31-0.97,0.31c-0.18,0.05-0.08-0.25-0.13-0.42c-0.13-0.37-0.24-0.78-0.33-1.18
				C94.39,119.77,94.44,119.69,94.52,119.67L94.52,119.67z"/>
		</g>
		<g>
			<path class="st21" d="M94.39,118.46c0.01-0.42,0.07-0.82,0.25-1.2c0.08-0.17,0.08-0.52,0.35-0.49c0.38,0.04,0.77,0.23,0.96,0.7
				c0.03,0.07,0.01,0.15,0,0.22c-0.05,0.46,0.12,0.67,0.12,1c0.01,0.18-0.24,0-0.4,0c-0.36,0-0.75-0.02-1.14-0.07
				C94.45,118.61,94.39,118.54,94.39,118.46L94.39,118.46z"/>
		</g>
		<g>
			<path class="st21" d="M93.38,118.08c-0.33-0.27-0.66-0.56-0.94-0.84c-0.13-0.13-0.45-0.17-0.33-0.32
				c0.08-0.18,0.33-0.25,0.67-0.77c0.31-0.49,1.05-0.3,1.37-0.05c0.24,0.18,0.03,0.48-0.01,0.7c-0.08,0.46-0.28,0.87-0.54,1.25
				C93.55,118.12,93.45,118.13,93.38,118.08L93.38,118.08z"/>
		</g>
		<g>
			<path class="st21" d="M96.47,137.58c-0.01,0.33-0.04,0.64-0.03,0.91c0,0.14,0.11,0.28,0.02,0.35c-0.08,0.09-0.22,0.13-0.47,0.35
				c-0.33,0.14-0.61-0.31-0.63-0.49c-0.05-0.22,0.14-0.37,0.24-0.5c0.21-0.28,0.46-0.51,0.77-0.67
				C96.42,137.49,96.47,137.53,96.47,137.58L96.47,137.58z"/>
		</g>
		<g>
			<path class="st21" d="M97.49,146.37l-1.01-0.76c-0.14-0.11-0.45-0.08-0.36-0.23c0.04-0.13,0.36-0.42,0.52-0.96
				c0.37-0.52,1.12-0.38,1.34-0.21c0.3,0.16,0.14,0.53,0.13,0.76c-0.01,0.49-0.17,0.94-0.41,1.37
				C97.66,146.41,97.56,146.43,97.49,146.37L97.49,146.37z"/>
		</g>
		<g>
			<path class="st21" d="M96.4,147.07c-0.28,0.16-0.86,0.48-1.14,0.62c-0.17,0.09-0.3,0.38-0.41,0.23c-0.13-0.1-0.27-0.45-0.65-0.9
				c-0.25-0.56,0.19-1.17,0.42-1.29c0.26-0.19,0.51,0.1,0.72,0.2c0.45,0.21,0.81,0.53,1.11,0.92
				C96.5,146.93,96.48,147.03,96.4,147.07L96.4,147.07z"/>
		</g>
		<g>
			<path class="st21" d="M97.25,148.19c0.3,0.46,0.57,0.93,0.77,1.42c0.09,0.23,0.38,0.44,0.22,0.68c-0.15,0.24-0.4,0.5-1,0.8
				c-0.55,0.09-1.09-0.44-1.2-0.64c-0.16-0.25,0.12-0.52,0.22-0.78c0.19-0.53,0.45-1.03,0.77-1.5
				C97.09,148.11,97.2,148.11,97.25,148.19L97.25,148.19z"/>
		</g>
		<g>
			<path class="st21" d="M98.34,147.87c0.47-0.14,0.93-0.2,1.41-0.14c0.23,0.02,0.58-0.09,0.69,0.19c0.11,0.21,0.2,0.92-0.29,1.3
				c-0.53,0.19-0.88,0.44-1.05,0.45c-0.19,0.06-0.15-0.26-0.25-0.43c-0.1-0.16-0.2-0.34-0.3-0.54
				C98.52,148.49,98.06,148.01,98.34,147.87L98.34,147.87z"/>
		</g>
		<g>
			<path class="st21" d="M98.69,145.59c-0.06-0.43-0.02-0.86,0.21-1.23c0.11-0.18,0.2-0.57,0.53-0.5c0.3,0.05,0.7,0.28,0.76,0.91
				c0.01,0.08-0.01,0.15-0.04,0.22c-0.22,0.59-0.1,0.84-0.07,0.98c0.07,0.15-0.09-0.1-0.21-0.13c-0.11-0.04-0.26-0.06-0.43-0.07
				C99.25,145.67,98.77,145.84,98.69,145.59L98.69,145.59z"/>
		</g>
		<g>
			<path class="st21" d="M105.08,134.21c0.24,0.45,0.46,0.9,0.64,1.36c0.08,0.21,0.37,0.4,0.22,0.57c-0.13,0.2-0.37,0.29-0.87,0.68
				c-0.44,0.33-1.23-0.29-1.32-0.54c-0.18-0.27,0.11-0.54,0.22-0.77c0.21-0.49,0.52-0.92,0.9-1.32
				C104.92,134.11,105.03,134.13,105.08,134.21L105.08,134.21z"/>
		</g>
		<g>
			<path class="st21" d="M105.7,133.26c0.49-0.15,0.98-0.23,1.49-0.21c0.24,0.01,0.59-0.13,0.73,0.14c0.13,0.2,0.34,0.89-0.08,1.35
				c-0.51,0.25-0.85,0.53-1.05,0.54c-0.21,0.06-0.23-0.27-0.36-0.44c-0.29-0.36-0.55-0.76-0.8-1.17
				C105.58,133.39,105.62,133.29,105.7,133.26L105.7,133.26z"/>
		</g>
		<g>
			<path class="st21" d="M104.33,132.99c-0.33,0.36-0.69,0.7-1.08,0.97c-0.18,0.13-0.32,0.45-0.55,0.33
				c-0.13-0.03-0.77-0.57-0.86-1.03c0.04-0.65,0.23-0.93,0.41-1.12c0.18-0.2,0.45,0.04,0.68,0.09c0.48,0.11,0.93,0.3,1.37,0.55
				C104.37,132.82,104.39,132.93,104.33,132.99L104.33,132.99z"/>
		</g>
		<g>
			<path class="st21" d="M104.48,132.33c-0.33-0.71-0.77-1.38-1-2.07c-0.02-0.25,0.06-0.5,0.15-0.85c0.01-0.03,0.04-0.05,0.06-0.05
				c0.77,0.11,1,0.73,0.94,1.35c0.03,0.54,0.02,1.06-0.05,1.6C104.58,132.36,104.5,132.37,104.48,132.33L104.48,132.33z"/>
		</g>
		<g>
			<path class="st21" d="M105.35,131.63c-0.08-0.33-0.09-0.64-0.04-0.98c0.03-0.16-0.01-0.39,0.17-0.5c0.14-0.1,0.59-0.23,0.77,0.06
				c0.04,0.31,0.12,0.48,0.11,0.59c0.01,0.12-0.17,0.14-0.27,0.23c-0.2,0.18-0.41,0.39-0.64,0.61
				C105.42,131.69,105.36,131.67,105.35,131.63L105.35,131.63z"/>
		</g>
		<g>
			<path class="st21" d="M98.05,156.42c-0.51-0.03-1.01-0.09-1.49-0.18c-0.22-0.04-0.54,0.1-0.6-0.13c-0.1-0.22-0.03-0.47-0.08-1.1
				c-0.05-0.52,0.88-0.86,1.18-0.81c0.32,0,0.38,0.38,0.52,0.6c0.29,0.44,0.49,0.93,0.61,1.46
				C98.22,156.34,98.14,156.43,98.05,156.42L98.05,156.42z"/>
		</g>
		<g>
			<path class="st21" d="M99.13,156.12c-0.33-0.39-0.58-0.82-0.7-1.32c-0.06-0.24-0.29-0.56-0.04-0.8c0.3-0.31,0.81-0.5,1.28-0.24
				c0.07,0.03,0.1,0.11,0.13,0.17c0.3,0.55,0.59,0.6,0.67,0.77c0.13,0.14-0.19,0.2-0.3,0.35l-0.38,0.49
				C99.62,155.67,99.38,156.32,99.13,156.12L99.13,156.12z"/>
		</g>
		<g>
			<path class="st21" d="M100.16,156.23c0.3-0.35,0.65-0.64,1.08-0.82c0.2-0.09,0.47-0.36,0.71-0.14c0.31,0.26,0.55,0.74,0.32,1.22
				c-0.03,0.07-0.1,0.11-0.16,0.15c-0.4,0.26-0.41,0.54-0.61,0.79c-0.1,0.15-0.18-0.15-0.32-0.25c-0.31-0.22-0.68-0.48-0.99-0.72
				C100.12,156.39,100.1,156.29,100.16,156.23L100.16,156.23z"/>
		</g>
		<g>
			<path class="st21" d="M99.33,157.45c0.44,0.1,0.86,0.23,1.24,0.44c0.18,0.09,0.52,0.07,0.48,0.31c-0.02,0.23-0.11,0.51-0.52,1
				c-0.41,0.33-1.15,0.31-1.3,0.25c-0.23-0.05-0.1-0.36-0.12-0.56c-0.05-0.43-0.03-0.87,0.03-1.31
				C99.16,157.49,99.24,157.44,99.33,157.45L99.33,157.45z"/>
		</g>
		<g>
			<path class="st21" d="M98.4,157.56c0.13,0.41,0.23,0.82,0.29,1.22c0.03,0.18,0.24,0.42,0.05,0.49c-0.33,0.14-0.58,0.02-1.03,0.13
				c-0.49,0.21-0.98-0.5-1.06-0.82c-0.09-0.26,0.26-0.34,0.41-0.48c0.33-0.29,0.72-0.49,1.14-0.65
				C98.28,157.44,98.37,157.48,98.4,157.56L98.4,157.56z"/>
		</g>
		<g>
			<path class="st21" d="M113.94,151.53c-0.05,0.43-0.11,0.93-0.16,1.35c-0.03,0.2,0.14,0.47-0.05,0.49c-0.19,0.06-0.44,0-1.06,0.09
				c-0.63,0.01-0.94-0.81-0.91-1.08c-0.01-0.34,0.38-0.41,0.59-0.54c0.44-0.28,0.92-0.42,1.44-0.48
				C113.87,151.37,113.95,151.45,113.94,151.53L113.94,151.53z"/>
		</g>
		<g>
			<path class="st21" d="M113.57,150.19c-0.51-0.04-1.01-0.11-1.48-0.22c-0.22-0.05-0.55,0.07-0.61-0.16
				c-0.09-0.23-0.04-0.49-0.01-1.12c0.03-0.54,1.03-0.78,1.22-0.72c0.31,0.01,0.34,0.39,0.46,0.6c0.27,0.45,0.44,0.94,0.56,1.45
				C113.73,150.11,113.66,150.19,113.57,150.19L113.57,150.19z"/>
		</g>
		<g>
			<path class="st21" d="M114.67,150.36c-0.3-0.5-0.57-1.02-0.78-1.55c-0.1-0.25-0.4-0.49-0.26-0.73c0.02-0.14,0.7-0.8,1.07-0.91
				c0.55,0.09,0.88,0.37,1.12,0.74c0.19,0.28-0.09,0.57-0.18,0.85c-0.17,0.57-0.44,1.1-0.76,1.6
				C114.84,150.44,114.71,150.44,114.67,150.36L114.67,150.36z"/>
		</g>
		<g>
			<path class="st21" d="M116.41,149.89c-0.24-0.41-0.4-0.85-0.4-1.33c0-0.23-0.15-0.6,0.17-0.77c0.37-0.21,0.98-0.24,1.28,0.22
				c0.04,0.06,0.04,0.14,0.04,0.22c0.01,0.48,0.27,0.62,0.46,0.85c0.11,0.12-0.19,0.06-0.33,0.16l-0.46,0.31
				C116.98,149.61,116.61,150.12,116.41,149.89L116.41,149.89z"/>
		</g>
		<g>
			<path class="st21" d="M116.67,151c0.47-0.23,0.95-0.4,1.47-0.44c0.25-0.02,0.58-0.22,0.78,0.05c0.11,0.12,0.19,0.28,0.25,0.49
				c0.05,0.2,0.12,0.7-0.18,0.89c-0.46,0.17-0.61,0.5-0.94,0.63c-0.19,0.1-0.26-0.23-0.41-0.38c-0.16-0.14-0.32-0.3-0.49-0.47
				C117.05,151.58,116.41,151.21,116.67,151L116.67,151z"/>
		</g>
		<g>
			<path class="st21" d="M115.45,152.46c0.27,0.29,0.57,0.63,0.82,0.93c0.11,0.14,0.42,0.2,0.29,0.33
				c-0.08,0.13-0.43,0.33-0.79,0.77c-0.5,0.35-1.16,0.04-1.32-0.15c-0.23-0.21,0.01-0.49,0.07-0.71c0.13-0.45,0.38-0.84,0.7-1.18
				C115.29,152.39,115.4,152.4,115.45,152.46L115.45,152.46z"/>
		</g>
		<ellipse class="st21" cx="86.27" cy="140.19" rx="0.53" ry="0.81"/>
		<circle class="st21" cx="88.05" cy="141.38" r="0.39"/>
		<ellipse class="st21" cx="90.1" cy="125.58" rx="0.61" ry="0.49"/>
		<ellipse class="st21" cx="99.75" cy="126.37" rx="0.69" ry="1.22"/>
		<ellipse class="st21" cx="110.5" cy="140.77" rx="1" ry="1.22"/>
		<ellipse class="st21" cx="86.88" cy="107.12" rx="0.78" ry="1.05"/>
		<ellipse class="st21" cx="87.66" cy="111.09" rx="0.44" ry="0.78"/>
		<circle class="st21" cx="106.96" cy="155.71" r="0.41"/>
		<circle class="st21" cx="105.89" cy="148.5" r="0.69"/>
		<path class="st22" d="M126.1,71.7c0,0,3.3-3.5,7.06-0.26"/>
		<path class="st22" d="M127.9,77.06c0,0,1.9-5.75,9.81-2.16"/>
		<path class="st22" d="M132.41,73.72c0,0,0.85-3.46,4.12-3.39s5.26,2.48,5.26,2.48"/>
		<path class="st22" d="M139.47,63.53c0,0-3.77,2.11-3.27,6.81"/>
		<path class="st22" d="M143.36,67.74c0,0-1.75,2.34-1.89,4.73"/>
		<path class="st22" d="M136.89,79.61c0,0-0.46-4.23,2.22-5.76s7.62-0.29,7.62-0.29"/>
		<path class="st22" d="M148.1,73.09c0,0-2.32,0.78-2.58,3.26c-0.26,2.48-0.33,2.9-0.33,2.9"/>
		<path class="st22" d="M140.67,79.61c0,0,0.24-1.99,1.38-2.55s3.44-0.42,3.44-0.42"/>
		<path class="st22" d="M132.41,82.16c0,0,2.58-3.17,6.08-2.71s4.87,2.71,4.87,2.71"/>
		<path class="st22" d="M133.88,85.01c0,0,2.62-1.28,4.81-1.05c2.19,0.23,2.79,0.43,2.79,0.43"/>
		<path class="st22" d="M153.24,79.84c0,0-3.5-1.04-5.26-0.44c-1.77,0.6-4.87,2.73-5.79,4.03s-1.18,2.65-1.14,3.92"/>
		<path class="st22" d="M137.1,89.78c0,0,3.55-2.91,7.05-2.71c3.5,0.2,8.6,3.2,9.78,4.74"/>
		<path class="st22" d="M138.72,92.63c0,0,2.21-1.37,4.36-1.24c2.15,0.13,5.19,1.05,5.81,2.16"/>
		<path class="st22" d="M152.35,90.42c0,0-1.04-7.87,3.65-9.47"/>
		<path class="st22" d="M146.17,87.36c0,0,0.23-3.16,2.42-3.43c2.19-0.27,4.34,0.27,4.34,0.27"/>
		<path class="st22" d="M156.21,89.43c0,0-0.42-4.28,2-5.79"/>
		<polygon class="st17" points="60.02,84.84 50.17,94 38.23,158.43 64.03,162.53 74.23,97.49 67.35,86.06 		"/>
		<polyline class="st17" points="73.09,104.78 86.53,102.11 123.41,152.85 97.08,162.53 70.38,122.1 		"/>
		
			<ellipse transform="matrix(0.1791 -0.9838 0.9838 0.1791 -37.0725 136.0728)" class="st17" cx="63" cy="90.25" rx="2.54" ry="3.79"/>
		
			<ellipse transform="matrix(0.9489 -0.3155 0.3155 0.9489 -30.3526 30.6189)" class="st17" cx="79.4" cy="109.06" rx="3.83" ry="2.03"/>
		<path class="st17" d="M121.32,58.3c0,0-0.87-0.13-1.26,0.61c-0.39,0.74-1.44,3.62-1.44,5.27c0,1.66,0.26,2.18,1.05,3.18
			c0.78,1,21.45,29.16,21.45,29.16l21.62-7.37c0,0-23.98-29.29-25.46-30.86c-1.48-1.57-4.53-2.57-7.24-2.66
			c-2.7-0.09-6.36-0.26-6.89,0S121.45,56.6,121.32,58.3z"/>
		<ellipse transform="matrix(0.866 -0.5 0.5 0.866 -13.2479 70.876)" class="st17" cx="125.63" cy="60.16" rx="3.05" ry="1.83"/>
	</g>
</g>
<g id="Character" class="st0">
	<g class="st2">
		<path class="st23" d="M63.64,110.57c-7.52,0.82-18.21,1.41-28.08,1.41c-0.35,4.11-0.7,8.69-0.7,10.93
			c0,18.8,12.45,20.32,23.38,20.32c18.45,0,27.61-5.29,27.61-16.1c0-6.11-3.29-13.75-9.63-21.62c2.23-0.7,5.64-2,7.52-2.94
			c7.17,9.28,10.81,18.21,10.81,25.85c0,19.74-22.09,22.67-36.3,22.67c-11.28,0-31.49-0.82-31.49-28.2c0-5.29,0.47-9.16,0.71-11.16
			c-9.87-0.35-25.73-0.94-25.73-13.04c0-5.29,3.05-10.22,9.99-15.16l6.23,3.64c-5.17,3.17-8.22,7.05-8.22,10.22
			c0,6.23,9.4,6.46,18.33,6.7c0.82-7.87,1.88-17.15,2.94-26.32c-8.46-0.94-18.21-3.29-24.67-6.46l2.11-7.64
			c6.46,3.05,14.69,5.29,23.5,6.34c0.94-7.4,1.76-14.92,2.58-21.15l12.22,1.53c-0.35,1.41-1.64,2.23-3.76,2.35
			c-0.82,4.93-1.76,11.4-2.7,18.09c3.41,0.24,7.05,0.35,10.81,0.35c4.46,0,9.05-0.12,13.28-0.47l-0.35,7.75
			c-3.52,0.23-7.52,0.35-11.51,0.35c-4.58,0-9.16-0.12-13.28-0.35c-1.17,8.81-2.23,17.86-3.05,25.85c9.28,0,19.62-0.59,27.37-1.65
			L63.64,110.57z"/>
		<path class="st23" d="M132.96,51.6c-0.24,1.41-1.29,2.23-3.64,2.58c-0.94,13.63-2.12,44.76-2.12,62.15
			c0,17.5,8.69,25.96,23.5,25.96c14.33,0,28.9-7.17,42.29-22.32c1.17,1.88,3.88,5.64,5.29,6.93c-13.75,15.63-30.43,23.85-47.7,23.85
			c-21.38,0-32.31-12.34-32.31-34.54c0-14.8,1.06-51.22,1.88-65.67L132.96,51.6z M164.79,63.93c5.52,4.23,12.34,11.28,15.98,16.21
			l-4.35,3.64c-3.52-5.05-10.69-12.34-15.74-16.21L164.79,63.93z M179.13,53.24c5.64,4.23,12.57,11.16,16.1,15.98l-4.46,3.76
			c-3.17-4.7-10.1-11.87-15.63-16.1L179.13,53.24z"/>
	</g>
</g>
<g id="About" class="st0">
	<path class="st2" d="M96.92,177.27c0.69,0.07,1.37,0.22,2.06,0.19c13.6-0.55,27.05-1.82,39.62-7.72c2.09-0.98,4.31-1.69,6.51-2.42
		c0.85-0.28,1.79-0.27,2.69-0.4c0.12,0.18,0.24,0.35,0.36,0.53c-2.01,2.57-4.01,5.15-6.02,7.72c0.16,0.19,0.33,0.39,0.49,0.58
		c0.71-0.18,1.5-0.21,2.11-0.57c2.71-1.6,5.37-3.27,8.03-4.95c2.46-1.55,4.88-3.17,7.35-4.71c0.62-0.39,1.36-0.58,2.04-0.86
		c0.11,0.12,0.22,0.24,0.33,0.35c-0.55,0.92-1.1,1.84-1.72,2.87c0.43,0.29,0.9,0.59,1.51,1c-1.38,1.53-2.67,2.98-3.97,4.42
		c0.06,0.11,0.13,0.23,0.19,0.34c1.24-0.56,2.47-1.11,3.71-1.67c0.12,0.16,0.25,0.32,0.37,0.48c-0.59,0.77-1.07,1.65-1.78,2.29
		c-11.87,10.75-25.73,17.56-41.56,19.79c-32.45,4.56-60.56-5.12-84.35-27.25c-15.61-14.52-25.1-32.5-28.15-53.76
		c-2.44-17.01-1.07-33.56,5.41-49.57c3.95-9.75,9.77-18.36,16.56-26.3c7.2-8.43,15.64-15.44,25.28-20.98
		c10.06-5.78,20.79-9.6,32.26-11.31c16.87-2.53,33.17-0.4,48.89,6.21c11.15,4.69,21.55,10.64,30.4,18.97
		c6.62,6.24,12.05,13.47,16.42,21.45c5.38,9.82,9.04,20.28,10.93,31.32c1.79,10.45,2.01,20.92,0.5,31.44
		c-1.79,12.48-5.96,24.07-12.76,34.68c-1.63,2.55-3.52,4.94-5.4,7.32c-0.4,0.51-1.27,0.65-1.92,0.96c-0.13-0.72-0.55-1.56-0.32-2.14
		c0.81-2.09,1.51-4.34,2.85-6.08c7.57-9.91,11.06-21.34,12.65-33.46c1.53-11.72,1.04-23.39-1.33-34.97
		c-0.06-0.29-0.02-0.65-0.17-0.86c-0.22-0.29-0.58-0.48-0.88-0.71c-0.17,0.38-0.54,0.81-0.47,1.13c1.45,5.98,1.21,12.06,1.08,18.12
		c-0.19,9-1.06,17.95-3.92,26.54c-0.81,2.43-2.23,4.68-3.53,6.92c-0.39,0.67-1.35,1-2.05,1.49c-0.21-0.1-0.42-0.2-0.63-0.3
		c0.23-1.13,0.31-2.33,0.72-3.39c5.86-15.09,7.22-30.76,4.32-46.48c-2.57-13.93-9.51-26.17-18.19-37.33
		c-2.06-2.65-3.62-3.63-5.9-4.36c2.26,2.67,4.54,5.13,6.53,7.8c2.16,2.9,4.17,5.93,6.03,9.03c0.7,1.16,0.8,2.68,1.17,4.04
		c-0.24,0.11-0.47,0.22-0.71,0.33c-0.63-0.8-1.33-1.56-1.87-2.42c-4.37-6.85-9.3-13.24-15.44-18.62
		c-12.35-10.79-26.49-17.58-42.84-19.91c-32.49-4.62-64.65,13.99-78.37,40.78C25.82,75,23.15,87.9,23.87,101.5
		c0.9,16.94,6.46,32.17,16.85,45.59c5.04,6.5,11.66,11.14,18.54,15.46c11.53,7.24,24.32,9.88,37.69,10.51
		c0.95,0.04,1.92,0.05,2.83,0.29c0.47,0.13,1.03,0.66,1.16,1.12c0.08,0.28-0.52,0.87-0.93,1.14c-0.49,0.31-1.11,0.41-1.66,0.62
		c-0.49,0.18-0.96,0.39-1.44,0.58C96.91,176.96,96.92,177.11,96.92,177.27z M151.8,35.81c-2.35-3.91-5.7-6.74-9.42-9.13
		c-10.87-6.96-22.75-10.69-35.66-10.87c-3.6-0.05-7.22,0.39-10.82,0.71c-0.45,0.04-0.84,0.75-1.26,1.15
		c0.5,0.18,0.99,0.49,1.51,0.53c1.12,0.09,2.26-0.02,3.39,0.07c6.15,0.51,12.37,0.64,18.44,1.67c9.59,1.63,18.43,5.39,26.42,11.03
		C146.8,32.68,149.33,34.2,151.8,35.81z"/>
	<g class="st2">
		<path d="M95.1,149.41c0.27-6.12,0.41-20.15,0.41-28.59v-6.4c0-7.49-0.14-11.71-0.41-17.15l-11.16-1.22v-4.76l20.55-8.17l2.04,1.36
			l-0.41,18.38v17.97c0,8.44,0.14,22.46,0.41,28.59H95.1z M116.06,144.65v4.76H84.75v-4.76l14.97-2.72h2.72L116.06,144.65z
			 M91.7,59.16c0-5.17,3.95-8.58,8.98-8.58c5.04,0,8.98,3.4,8.98,8.58c0,5.04-3.95,8.57-8.98,8.57C95.64,67.74,91.7,64.2,91.7,59.16
			z"/>
	</g>
</g>
<g id="Books" class="st0">
	<g class="st2">
		<path class="st7" d="M36.98,101.64c0,0-11.81,8.46-13.97,11.7s-2.34,15.13,1.08,17.65c3.42,2.52,97.41,45.2,100.83,48.26
			c3.42,3.06,4.5,1.08,7.92-2.52c3.42-3.6,58.16-60.32,61.04-62.84c2.88-2.52,0.54-7.2-3.06-3.42c-3.6,3.78-57.44,59.78-59.42,61.76
			c-1.98,1.98-4.32,3.06-5.04-4.14c-0.72-7.2,0-15.85,3.06-18.55S188.3,98.4,190.64,94.8c2.34-3.6,3.6-6.84-0.72-6.84
			c-4.32,0-11.88-1.46-11.88-1.46L36.98,101.64z"/>
		<path class="st24" d="M189.86,95.71l-58.44,52.08c0,0-4.16,3.46-4.79,7.96c-0.63,4.5-0.81,21.79,3.6,17.29
			c4.41-4.5,60.59-62.57,60.59-62.57S190.52,99.32,189.86,95.71z"/>
		<path class="st11" d="M192.35,88.69c0,0,1.11,2.22-0.5,4.42c-1.61,2.2-33.42,31.17-37.38,34.59
			c-3.96,3.42-23.89,20.37-25.04,21.84c-1.15,1.47-3.23,6.94-3.26,10.99c-0.03,4.05,0.27,16.14,3.77,12.87
			c3.51-3.27,61.44-63.45,61.44-63.45s2.95-1.74,3.67,0.47s-2.41,4.66-4.16,6.42c-1.74,1.77-62.54,63.84-62.54,63.84
			s-3.92-1.9-5.25-9.99c-1.33-8.09-1.98-19.98-0.16-21.64c1.81-1.66,62.61-53.84,62.61-53.84S190.63,88.88,192.35,88.69z"/>
		<path class="st5" d="M76.54,21.46c-4.85,3.47-52.1,34.09-61.7,37.45S2.6,71.39,6.68,79.08c4.8,5.28,62.9,45.14,72.02,52.58
			s17.29,12.24,19.21,14.89c1.92,2.64,5.04,0.72,8.16-2.16c3.12-2.88,69.38-49.94,71.78-51.14c2.4-1.2,3.84-5.52,0-4.08
			c-3.84,1.44-69.86,47.78-72.02,49.46c-2.16,1.68-4.56,2.4-4.08-2.88c0.48-5.28,0.24-13.3,5.76-18.06
			c5.52-4.75,66.26-39.32,70.1-43.16c3.84-3.84,5.28-6.24-0.48-7.68c-5.76-1.44-55.94-22.57-68.42-30.01S85.42,24.34,83.74,21.46
			C82.06,18.58,80.77,18.43,76.54,21.46z"/>
		<path class="st24" d="M177.62,74.52l-70.1,43.16c0,0-4.88,5.15-5.08,10.58c-0.2,5.43-2.84,14.8,3.4,10.36s72.02-49.46,72.02-49.46
			L177.62,74.52z"/>
		<path class="st12" d="M180.99,69.59c0,0-3.55-0.55-11.53,4.92s-41.97,26.49-47.63,28.96c-5.66,2.46-18.05,6.99-20.74,12.18
			c-2.69,5.19-3.26,18.4-2.43,22.84s2.43,9.18,2.43,9.18l32.54-23.35l44.73-31.38c0,0,2.65-3.06,1.62-3.78
			c-1.03-0.72-2.65,0-3.37,0.6s-70.28,48.74-70.28,48.74s-4.44,3.96-4.56-1.26c-0.12-5.22,1.62-15.49,4.38-18.13
			s61.91-38.26,61.91-38.26S181.48,73.13,180.99,69.59z"/>
		<path class="st24" d="M48.45,51.59c4.43-2.42,27.01-15.25,29.05-18.61c2.04-3.36,5.28-2.76,7.8,0s7.44,6.24,8.76,6.48
			c1.32,0.24,1.8,2.16-2.28,4.32c-4.08,2.16-31.21,20.05-33.13,21.97c-1.92,1.92-4.2,2.52-7.44,0c-3.24-2.52-9-6.48-10.32-7.08
			S41.03,55.65,48.45,51.59z"/>
		<path class="st24" d="M80.62,133.63c0,0-1.56-8.34,0-13.5c1.56-5.16,3.96-7.44,6.24-6.12c2.28,1.32,3.6,2.28,4.32,2.64
			c0.72,0.36-0.96,2.88-2.16,5.88s-1.72,13.38-0.98,16.23C84.29,136.01,80.62,133.63,80.62,133.63z"/>
		<path class="st24" d="M104.21,168.87c0,0-0.78-7.45,0-11.53s1.26-6,3.55-5.28s3.48,0.96,4.44,1.44s1.56,0.72,0.6,3.84
			c-0.96,3.12-0.61,11.76,0.17,15.72C110.12,171.69,104.21,168.87,104.21,168.87z"/>
		<path class="st25" d="M76.54,21.46c-4.85,3.47-52.1,34.09-61.7,37.45S2.6,71.39,6.68,79.08c4.8,5.28,62.9,45.14,72.02,52.58
			s17.29,12.24,19.21,14.89c1.92,2.64,5.04,0.72,8.16-2.16c3.12-2.88,69.38-49.94,71.78-51.14c2.4-1.2,3.84-5.52,0-4.08
			c-3.84,1.44-69.86,47.78-72.02,49.46c-2.16,1.68-4.56,2.4-4.08-2.88c0.48-5.28,0.24-13.3,5.76-18.06
			c5.52-4.75,66.26-39.32,70.1-43.16c3.84-3.84,5.28-6.24-0.48-7.68c-5.76-1.44-55.94-22.57-68.42-30.01S85.42,24.34,83.74,21.46
			C82.06,18.58,80.77,18.43,76.54,21.46z"/>
		<path class="st25" d="M11.15,60.69c0,0,88.2,46.25,92.28,51.62"/>
		<path class="st25" d="M180.99,69.59c0,0-3.49-0.12-6.97,2.4c-3.48,2.52-45.38,28.57-53.42,32.05s-17.89,7.08-19.93,12.48
			c-2.04,5.4-3,14.28-2.28,20.05s1.66,8.98,2.69,11.09"/>
		<path class="st25" d="M36.98,101.64c0,0-11.81,8.46-13.97,11.7s-2.34,15.13,1.08,17.65c3.42,2.52,97.41,45.2,100.83,48.26
			c3.42,3.06,4.5,1.08,7.92-2.52c3.42-3.6,58.16-60.32,61.04-62.84c2.88-2.52,0.54-7.2-3.06-3.42c-3.6,3.78-57.44,59.78-59.42,61.76
			c-1.98,1.98-4.32,3.06-5.04-4.14c-0.72-7.2,0-15.85,3.06-18.55S188.3,98.4,190.64,94.8c2.34-3.6,3.6-6.84-0.72-6.84
			c-4.32,0-11.88-1.46-11.88-1.46"/>
		<line class="st25" x1="177.62" y1="74.52" x2="177.86" y2="89.16"/>
		<line class="st25" x1="189.86" y1="95.71" x2="191.38" y2="109.94"/>
		<path class="st25" d="M192.35,88.69c0,0-2.07,1.07-5.31,4.94c-3.24,3.87-26.11,23.41-32.77,28.36
			c-6.66,4.95-27.1,23.24-29.98,25.8c-2.88,2.56-2.34,5.62-2.34,8.86c0,3.24,0.81,15.13,2.07,18.01c1.26,2.88,2.43,5.09,3.87,6.1"/>
		<line class="st25" x1="123.26" y1="148.92" x2="109.46" y2="141.77"/>
		<path class="st25" d="M74.25,128.26c0,0-47.42-18-49.4-16.97"/>
	</g>
</g>
<g id="Wood_x5F_Character" class="st0">
	<g class="st2">
		<g>
			<path class="st26" d="M136.6,180.07c6.53,0,10.22-2.5,10.22-10.34s0-89.58,0-94.34c0-4.75-1.54-4.4-2.85-6.18
				c-1.31-1.78-13.78-13.43-16.51-17.35c-2.73-3.92-5.23-3.56-7.13-3.68s-19.49-0.83-19.49-0.83s-17.59,0.71-19.49,0.83
				s-4.4-0.24-7.13,3.68C71.48,55.8,59,67.44,57.7,69.22c-1.31,1.78-2.85,1.43-2.85,6.18c0,4.75,0,86.49,0,94.34
				s3.68,10.34,10.22,10.34S130.06,180.07,136.6,180.07z"/>
		</g>
		<g>
			<path class="st27" d="M68.58,58.34C67.62,59.13,55.15,70.77,55,72.85c-0.15,2.08,0,93.97,0,98.08s1.62,9.14,8.75,9.14
				s71.16,0,74.49,0s8.56-2.14,8.56-8.2c0-6.06,0-96.12,0-98.02s-1.92-3.8-3.92-5.83c-2-2.04-12.63-12.63-14.04-14.39
				c-1.41-1.76-3.37-6.32-10.29-5.65c0.66,1.88,1.06,3.07,0.72,4.16c2.71,0.46,3.44-0.28,7.87,5.37
				c4.44,5.65,14.23,14.2,15.27,16.47c1.03,2.28,1.05,2.28,1.05,11.87s0,80.02,0,82.54c0,2.53-2.1,5.66-7.32,6.35
				c-5.23,0.69-72.09-0.21-72.09-0.21s-5.1-0.53-5.1-6.31s0.04-93.46,0.04-93.46s4.54-8.09,6.61-11.03
				C67.69,60.79,68.58,58.34,68.58,58.34z"/>
		</g>
		<path class="st28" d="M74.21,51.87c0,0-15.24,20.18-15.24,23.23c0,3.05,0,88,0,91.82s1.46,7.58,6.27,7.75
			c4.81,0.17,66.8,0,69.89,0c3.09,0,8.35-1.89,8.35-6.7s0-88.1,0-91.47s-10.67-12.6-13.14-15.06c-2.47-2.46-5.22-6.44-6.14-7.59
			c-0.92-1.16-3.46-1.69-5.76-1.74"/>
		<path class="st23" d="M109.18,102.72c-3.1,0.34-7.5,0.58-11.57,0.58c-0.15,1.69-0.29,3.58-0.29,4.5c0,7.75,5.13,8.37,9.63,8.37
			c7.6,0,11.38-2.18,11.38-6.63c0-2.52-1.36-5.66-3.97-8.91c0.92-0.29,2.32-0.82,3.1-1.21c2.95,3.82,4.45,7.5,4.45,10.65
			c0,8.13-9.1,9.34-14.96,9.34c-4.65,0-12.97-0.34-12.97-11.62c0-2.18,0.19-3.78,0.29-4.6c-4.07-0.15-10.6-0.39-10.6-5.37
			c0-2.18,1.26-4.21,4.11-6.24l2.57,1.5c-2.13,1.31-3.39,2.9-3.39,4.21c0,2.57,3.87,2.66,7.55,2.76c0.34-3.24,0.77-7.07,1.21-10.84
			c-3.49-0.39-7.5-1.36-10.17-2.66l0.87-3.15c2.66,1.26,6.05,2.18,9.68,2.61c0.39-3.05,0.73-6.15,1.06-8.71l5.03,0.63
			c-0.15,0.58-0.68,0.92-1.55,0.97c-0.34,2.03-0.73,4.7-1.11,7.45c1.4,0.1,2.9,0.15,4.45,0.15c1.84,0,3.73-0.05,5.47-0.19l-0.15,3.2
			c-1.45,0.1-3.1,0.15-4.74,0.15c-1.89,0-3.78-0.05-5.47-0.15c-0.48,3.63-0.92,7.36-1.26,10.65c3.82,0,8.08-0.24,11.28-0.68
			L109.18,102.72z"/>
		<path class="st23" d="M92.36,125c-0.1,0.58-0.53,0.92-1.5,1.06c-0.39,5.62-0.87,18.44-0.87,25.61c0,7.21,3.58,10.7,9.68,10.7
			c5.91,0,11.91-2.95,17.43-9.2c0.48,0.77,1.6,2.32,2.18,2.86c-5.66,6.44-12.54,9.83-19.65,9.83c-8.81,0-13.31-5.08-13.31-14.23
			c0-6.1,0.44-21.11,0.77-27.06L92.36,125z M105.48,130.08c2.28,1.74,5.08,4.65,6.58,6.68l-1.79,1.5c-1.45-2.08-4.41-5.08-6.49-6.68
			L105.48,130.08z M111.38,125.68c2.32,1.74,5.18,4.6,6.63,6.58l-1.84,1.55c-1.31-1.94-4.16-4.89-6.44-6.63L111.38,125.68z"/>
		<path class="st28" d="M136.6,180.07c6.53,0,10.22-2.5,10.22-10.34s0-89.58,0-94.34c0-4.75-1.54-4.4-2.85-6.18
			c-1.31-1.78-13.78-13.43-16.51-17.35c-2.73-3.92-5.23-3.56-7.13-3.68s-19.49-0.83-19.49-0.83s-17.59,0.71-19.49,0.83
			s-4.4-0.24-7.13,3.68C71.48,55.8,59,67.44,57.7,69.22c-1.31,1.78-2.85,1.43-2.85,6.18c0,4.75,0,86.49,0,94.34
			s3.68,10.34,10.22,10.34S130.06,180.07,136.6,180.07z"/>
		<path class="st28" d="M55.14,172.63c0,0,1.76-2.75,3.88-3.38"/>
		<path class="st28" d="M60.27,179.72c0,0-0.47-4.97,1.63-6.09"/>
		<path class="st28" d="M146.58,172.86c0,0-1.53-2.98-3.64-3.61"/>
		<path class="st28" d="M141.16,179.71c0,0,0.47-4.97-1.63-6.09"/>
		<path class="st28" d="M143.4,75.95c0,0,0.23-4.13,2.85-4.51"/>
		<path class="st28" d="M55.24,72.22c0,0,3.24-0.76,3.77,2.54"/>
		<path class="st24" d="M98.27,43.32c2.74,1.77,6.51-12.44,13.17-17.9s18.93-5.86,25.03-5.78c6.1,0.08,11.72-2.53,14.89-2.69
			c3.17-0.16-1.27-4.12-2.85-4.67c-1.58-0.55-6.18,1.5-8.79,2.06c-2.61,0.55-5.07,0.16-14.26,0.79s-12.75,3.64-19.8,8.87
			S94.05,43.81,94.05,43.81S97.26,42.67,98.27,43.32z"/>
		<path class="st24" d="M110.83,43.81c0.89-4.5,13.68-8.17,24.29-9.91c10.61-1.74,16.32-2.93,21.47-4.87s13.7-9.62,15.21-11.44
			c1.5-1.82-2.61-4.28-4.2-4.44c-1.58-0.16-3.49,2.69-7.05,7.45s-15.05,6.73-26.61,8.4c-11.56,1.66-20.36,5.07-24,7.6
			c-3.64,2.53-4.28,7.53-4.28,7.53L110.83,43.81z"/>
		<path class="st28" d="M94.05,43.81c0,0,4.56-14.59,11.61-19.81s10.61-8.24,19.8-8.87s11.64-0.24,14.26-0.79
			c2.61-0.55,7.21-2.61,8.79-2.06c1.58,0.55,6.02,4.51,2.85,4.67c-3.17,0.16-8.79,2.77-14.89,2.69c-6.1-0.08-18.38,0.32-25.03,5.78
			s-10.02,17.03-13.17,17.9"/>
		<path class="st28" d="M105.66,44.12c0,0,0.63-5,4.28-7.53c3.64-2.53,12.44-5.94,24-7.6c11.56-1.66,23.05-3.64,26.61-8.4
			s5.47-7.6,7.05-7.45c1.58,0.16,5.7,2.61,4.2,4.44c-1.5,1.82-10.06,9.5-15.21,11.44s-10.85,3.13-21.47,4.87
			c-10.61,1.74-23.4,5.41-24.29,9.91"/>
		<path class="st28" d="M96.4,37.66c0,0,4.93-0.04,5.72,0.97"/>
		<path class="st28" d="M98.96,32.43c0,0,5.34,0.34,5.53,1.99"/>
		<path class="st28" d="M101.36,28.58c0,0,5.2,0.09,5.42,2.16"/>
		<path class="st28" d="M104.88,24.62c0,0,4.9,0.94,4.85,2.18"/>
		<path class="st28" d="M109.72,20.99c0,0,3.51,2.24,3.39,3.22"/>
		<path class="st28" d="M114.09,18.19c0,0,3.87,1.79,3.12,4.05"/>
		<path class="st28" d="M119.2,16.12c0,0,3.48,2.82,2.56,4.8"/>
		<path class="st28" d="M124.88,15.17c0,0,2.35,3.96,1.62,4.95"/>
		<path class="st28" d="M130.11,14.85c0,0,2.56,3.31,1.79,4.84"/>
		<path class="st28" d="M135.52,14.85c0,0,1.84,3.84,1.66,4.78"/>
		<path class="st28" d="M140.28,14.2c0,0,2.17,2.11,2.24,4.77"/>
		<path class="st28" d="M144,13.04c0,0,3.99,2.92,3.78,4.6"/>
		<path class="st28" d="M107.51,39.17c0,0,4.5,0.77,4.73,2.43"/>
		<path class="st28" d="M111.42,35.67c0,0,4.58,2.14,4.66,3.5"/>
		<path class="st28" d="M116.78,33.24c0,0,4.08,2.18,3.78,3.9"/>
		<path class="st28" d="M121.68,31.61c0,0,3.38,2.28,3.2,4.47"/>
		<path class="st28" d="M126.65,30.33c0,0,3.25,1.95,2.94,4.62"/>
		<path class="st28" d="M132.04,29.27c0,0,2.8,2.44,2.37,4.92"/>
		<path class="st28" d="M136.66,28.58c0,0,3.02,2.12,2.78,4.66"/>
		<path class="st28" d="M142.1,27.7c0,0,2.45,2.41,2.75,4.47"/>
		<path class="st28" d="M146.82,26.78c0,0,3.1,1.53,3.56,4.17"/>
		<path class="st28" d="M151.95,25.45c0,0,3.64,2.32,3.88,4.22"/>
		<path class="st28" d="M156.69,23.58c0,0,3.98,1.92,4.03,3.23"/>
		<path class="st28" d="M160.55,20.59c0,0,4.3,0.78,4.6,2.99"/>
		<path class="st28" d="M163.8,16.58c0,0,4.36,0.88,4.91,4"/>
		<path class="st24" d="M117.98,47c-2.09-2.16-4.85-3.52-8.98-3.14c-4.13,0.39-6.9-0.63-8.12,4.54c-1.28-0.95-1.49-2.12-3.83-1.4
			c0.62-1.3,3.14-4.09-0.31-3.93c-1.17,0.06-3.64-0.66-4.11,4.18c-2.73,0-6.07-0.66-9.2,1.63c-3.13,2.29-4.38,6.65-4.32,8.37
			c0.07,1.72,1.07,6.05,3.68,7.78s4.82,3.07,8.65,2.55c3.83-0.52,4.51-1.21,5.3-1.94c0.38,1.01,1.94,4.17,3.57,4.43
			s6.88,0.67,8.69-1.35c1.81-2.02,2.46-6.03,0.59-8.6c1.54-0.15,6.33-1.02,8.08-3.86C119.42,53.42,120.07,49.16,117.98,47z
			 M92.28,57.41c-0.43,0.23-0.29,1.59,0,3c-1.46,0.55-2.68,0.38-4.03,0c-1.35-0.38-2.46-2.69-2.26-3.98c0.2-1.29,1.29-2.2,2.55-2.8
			c1.27-0.6,3.86,0.34,3.86,0.34C91.76,54.07,91.99,56.21,92.28,57.41z M105.61,65.72c-0.74,0.61-2.52,1.08-4.25,0.31
			c-1.72-0.77-0.95-4.04-0.95-4.04c0.71,1.07,2.23,0.86,2.99,0.09c0.23,0.34,1.59,0.8,2.42,0.46
			C106.45,63.5,106.35,65.11,105.61,65.72z M112.01,53.48c-0.51,0.61-2.18,1.51-3.52,1.46c-1.35-0.05-1.57-0.28-1.57-0.28
			s0.05-1.89-0.37-2.38c0.24-0.68,0.52-1.06,0.35-1.61c0,0,2.35-1.17,3.53-0.99s2.4,1.13,2.47,1.68S112.53,52.86,112.01,53.48z"/>
		<path class="st28" d="M100,55.62c0,0,0.05-0.71,0.94-0.77c0.89-0.06,2.08-0.06,2.2,1.6s0.48,4.93,0.06,5.52s-1.01,1.6-2.61,0"/>
		<path class="st28" d="M102.79,55.62c0,0,0.05-0.71,0.94-0.77c0.89-0.06,2.08-0.06,2.2,1.6s0.48,4.93,0.06,5.52s-1.01,1.6-2.61,0"
			/>
		<path class="st28" d="M92.92,54.25c0,0-0.95,0.12-1.01,1.37c-0.06,1.25,0.36,1.96,1.25,2.02c0.89,0.06,4.57,0.65,7.72,0.42"/>
		<path class="st28" d="M92.28,57.25c0,0-0.31,0.12-0.37,1.37c-0.06,1.25,0.36,1.96,1.25,2.02c0.89,0.06,4.57,0.65,7.72,0.42"/>
		<path class="st28" d="M92.28,54.62c0,0,0.29,0.7,1.42,0.73c1.13,0.03,7.19,0.33,7.19,0.33"/>
		<path class="st28" d="M100.71,54.88c0,0,0.42,0.86,0.42,1.66c0,0.8,0.27,4.19,0.24,4.66c-0.03,0.48-0.33,1.17-0.33,1.17"/>
		<path class="st28" d="M98.81,61.38c0,0-0.75,3.52-2.89,4.99c-2.14,1.47-9.7,2.14-13.11-1.23c-3.41-3.37-4.16-5.74-3.49-9.82
			c0.67-4.08,4.75-7.49,6.65-7.8c1.9-0.32,5.35-0.36,6.65-0.12"/>
		<path class="st28" d="M93.01,55.23c0,0-0.51-8.5-0.03-9.77c0.48-1.27,0.87-1.82,2.3-2.14c1.43-0.32,2.1-0.36,2.99,0
			c0.89,0.36,0,1.6-0.59,2.38c-0.59,0.77-1.13,1.54-1.28,3.03s0,6.95,0,6.95"/>
		<path class="st28" d="M96.74,47.25c0,0,2.73-1.37,3.26,0.65c0,0-0.93,1.57-0.84,3.12c0.09,1.54,0.27,4.59,0.27,4.59"/>
		<path class="st28" d="M92.84,51.32c0,0-2.48-2.18-6.46-0.72c-3.97,1.46-4.36,4.48-3.94,7.25c0.42,2.76,3,5.2,4.51,5.5
			c1.51,0.3,5.08,0.71,6.83,0s1.87-1.32,2.2-2.23"/>
		<path class="st28" d="M92.92,54.25c0,0-1.72-1.27-3.9-0.82s-3.35,2.37-3.11,4.21c0.24,1.84,1.97,2.85,3.04,3.09
			c1.06,0.24,3.33,0.12,3.67-0.24"/>
		<path class="st28" d="M96.74,65.64c0,0,1.24,4.41,4.62,4.65c3.38,0.24,6.71-0.15,8.37-2.72c1.66-2.57,1.01-5.66-0.36-7.26"/>
		<path class="st28" d="M100.44,61.11c0,0-0.74,2.2-0.15,3.72c0.59,1.51,2.82,2.02,3.98,1.63s3.22-1.28,1.43-4.09"/>
		<path class="st28" d="M106.19,57.62c0,0,5.21,0.08,7.47-1.94c2.26-2.02,3.01-5.82,1.11-7.17s-6.38-1.82-8.12-1.31
			c-1.74,0.51-2.54,0.87-2.92,1.86"/>
		<path class="st28" d="M99.9,48.13c0,0,5.02,0.73,5.7,1.09s1.9,1.31,0.95,2.85"/>
		<path class="st28" d="M99.21,51.88c0,0,6.01-0.52,6.68-0.16c0.67,0.36,1.98,2.9-0.13,3.96"/>
		<path class="st28" d="M106.92,50.57c0,0,1.87-0.98,3.45-0.95c1.59,0.04,3.17,1.74,2.26,2.89s-2.26,3.23-5.84,2.11"/>
		<path class="st28" d="M100.88,48.28c0,0,0.18-2.26,1.84-3.33c1.66-1.07,7.52-1.31,9.66-1.03c2.14,0.28,5.86,2.22,6.5,4.79
			c0.63,2.57,0.36,6.14-1.35,7.84c-1.7,1.7-3.49,2.57-5.35,3.17c-1.86,0.59-4.24,0.48-6,0"/>
	</g>
</g>
<g id="Layer_12" class="st0">
	<g class="st2">
		<path d="M97.2,170.36c0.62,0.06,1.25,0.2,1.87,0.18c12.38-0.5,24.63-1.66,36.08-7.03c1.9-0.89,3.93-1.54,5.93-2.2
			c0.77-0.26,1.63-0.25,2.45-0.36c0.11,0.16,0.22,0.32,0.32,0.48c-1.83,2.34-3.65,4.69-5.48,7.03c0.15,0.18,0.3,0.35,0.45,0.53
			c0.64-0.16,1.37-0.19,1.92-0.52c2.47-1.45,4.89-2.98,7.31-4.51c2.24-1.41,4.44-2.89,6.69-4.29c0.56-0.35,1.24-0.53,1.86-0.78
			c0.1,0.11,0.2,0.21,0.3,0.32c-0.5,0.84-1,1.67-1.57,2.62c0.39,0.26,0.82,0.54,1.37,0.91c-1.25,1.4-2.43,2.71-3.62,4.03
			c0.06,0.1,0.12,0.21,0.18,0.31c1.12-0.51,2.25-1.02,3.38-1.52c0.11,0.15,0.22,0.29,0.33,0.44c-0.54,0.7-0.98,1.51-1.62,2.09
			c-10.81,9.79-23.43,15.99-37.85,18.02c-29.55,4.15-55.14-4.66-76.81-24.81c-14.21-13.22-22.85-29.59-25.63-48.95
			c-2.22-15.48-0.98-30.56,4.93-45.13c3.6-8.88,8.9-16.72,15.08-23.95c6.56-7.67,14.24-14.06,23.02-19.11
			c9.16-5.26,18.93-8.74,29.38-10.3c15.36-2.3,30.21-0.36,44.52,5.65c10.16,4.27,19.62,9.69,27.68,17.27
			c6.03,5.68,10.98,12.26,14.96,19.53c4.9,8.95,8.23,18.46,9.95,28.52c1.63,9.51,1.83,19.05,0.45,28.63
			c-1.63,11.36-5.43,21.92-11.62,31.58c-1.49,2.32-3.2,4.5-4.91,6.66c-0.37,0.46-1.16,0.59-1.75,0.87c-0.11-0.66-0.5-1.42-0.29-1.95
			c0.74-1.9,1.38-3.95,2.59-5.54c6.9-9.03,10.08-19.43,11.52-30.47c1.4-10.67,0.94-21.29-1.21-31.84c-0.05-0.26-0.02-0.59-0.16-0.79
			c-0.2-0.27-0.53-0.44-0.8-0.65c-0.15,0.35-0.49,0.74-0.42,1.03c1.32,5.44,1.11,10.98,0.99,16.5c-0.18,8.2-0.96,16.34-3.57,24.17
			c-0.74,2.21-2.03,4.26-3.22,6.3c-0.36,0.61-1.23,0.91-1.87,1.36c-0.19-0.09-0.38-0.18-0.57-0.27c0.21-1.03,0.28-2.12,0.66-3.08
			c5.33-13.74,6.57-28.01,3.94-42.32c-2.34-12.68-8.66-23.83-16.57-33.99c-1.88-2.41-3.29-3.31-5.37-3.97
			c2.06,2.43,4.13,4.67,5.95,7.1c1.97,2.64,3.79,5.4,5.49,8.22c0.63,1.06,0.73,2.44,1.07,3.68c-0.22,0.1-0.43,0.2-0.65,0.3
			c-0.57-0.73-1.21-1.42-1.7-2.2c-3.98-6.24-8.46-12.06-14.06-16.95c-11.24-9.83-24.12-16.01-39.01-18.13
			C79.89,24.86,50.6,41.81,38.1,66.2c-5.65,11.03-8.08,22.78-7.42,35.16c0.82,15.42,5.88,29.3,15.35,41.51
			c4.59,5.92,10.61,10.14,16.88,14.08c10.5,6.59,22.15,9,34.32,9.57c0.86,0.04,1.75,0.05,2.57,0.27c0.43,0.11,0.94,0.6,1.06,1.02
			c0.07,0.26-0.47,0.79-0.84,1.04c-0.44,0.28-1.01,0.37-1.51,0.56c-0.44,0.17-0.88,0.35-1.32,0.53
			C97.19,170.08,97.19,170.22,97.2,170.36z M147.17,41.55c-2.14-3.56-5.19-6.14-8.58-8.31c-9.89-6.33-20.71-9.74-32.47-9.9
			c-3.28-0.05-6.57,0.35-9.85,0.65c-0.41,0.04-0.77,0.68-1.15,1.05c0.46,0.17,0.9,0.44,1.37,0.48c1.02,0.08,2.06-0.02,3.08,0.07
			c5.6,0.46,11.27,0.58,16.79,1.52c8.73,1.49,16.78,4.91,24.06,10.04C142.61,38.7,144.91,40.09,147.17,41.55z"/>
		<path d="M100.18,119.35c19.01,0,29.26,7.26,32.85,10.15c3.14,2.53,17.66,14.52,21.56,31.49c0.56,2.42-3.21,3.7-3.15,6.32
			c-1.32,0.92,0.87,3.43-1.59,4.85c-16.61,9.57-57.91,26.12-105.51-9.07C50.77,148.17,62.64,119.35,100.18,119.35z"/>
		<circle cx="99.94" cy="81.01" r="32.93"/>
	</g>
</g>
<g id="Close" class="st0">
	<path class="st29" d="M100,156.1c6.84,0,31.05,27.53,39.99,35.32s29.47-1.04,42.1-11.95c12.63-10.91,15.79-33.25,7.89-41.04
		c-7.89-7.79-35.26-30.13-35.26-38.44s24.21-23.38,34.21-35.32c10-11.95,3.68-33.76-8.95-46.75C167.36,4.94,144.2,2.34,136.84,9.61
		c-7.37,7.27-31.57,37.4-36.84,37.4c-5.26,0-29.47-30.13-36.84-37.4s-30.52-4.68-43.15,8.31s-18.94,34.8-8.95,46.75
		S45.27,91.68,45.27,100s-27.36,30.65-35.26,38.44s-4.74,30.13,7.89,41.04c12.63,10.91,33.15,19.74,42.1,11.95
		S93.16,156.1,100,156.1z"/>
</g>
<g id="Setting">
	<path class="st30" d="M35.98,162.03c0.43-1.34,1.08-4.05,2.14-6.59c2.24-5.3,2.03-10.36-0.91-15.31c-0.68-1.15-1.4-2.28-1.98-3.48
		c-3.21-6.68-8.38-10.27-15.86-11.12c-8.99-1.03-13.56-6.58-13.63-15.68c-0.05-6.67-0.06-13.33,0-20
		c0.09-9.17,5.22-14.78,14.26-15.48c5.88-0.46,10.44-2.9,13.44-8.06c1.14-1.96,2.39-3.85,3.53-5.81c3.07-5.31,3.48-10.7,0.94-16.44
		c-4.06-9.19-1.78-15.85,6.83-20.91c5.52-3.24,11.04-6.48,16.61-9.63c8.07-4.57,15.73-3.13,21.06,4.39
		c3.84,5.42,8.83,7.43,15.31,7.74c9.05,0.43,16.34-1.58,21.62-9.75c3.33-5.16,10.84-6.58,16.64-3.61c7.46,3.82,14.78,8,21.85,12.52
		c5.98,3.82,8.44,11.12,4.94,17.22c-5.9,10.28,0.12,20.52,7.13,28.04c2.26,2.42,6.5,3.64,10.02,4.14
		c9.22,1.3,14.19,6.27,14.29,15.57c0.08,6.93,0.09,13.87-0.01,20.8c-0.12,8.45-4.69,14.24-13.1,14.84
		c-12.05,0.87-17.49,10.53-20.52,21.42c-0.76,2.72,0.5,6.31,1.65,9.19c3.73,9.38,1.72,15.77-7.07,20.89
		c-5.64,3.29-11.27,6.62-16.99,9.77c-8.29,4.57-14.92,3-20.53-4.69c-7.8-10.71-26.89-10.9-34.86-0.36
		c-6.31,8.35-12.78,9.73-21.88,4.56c-6.03-3.43-11.96-7.01-17.98-10.46C38.18,173.01,36.19,168.79,35.98,162.03z M100.24,63.67
		c-20.17,0.31-36.48,16.34-36.74,35.25c-0.29,21.63,17.26,37.83,36.84,37.68c18.97-0.15,37.09-16.66,36.12-38.84
		C135.68,79.64,118.87,63.38,100.24,63.67z"/>
</g>
<g id="Layer_13">
</g>
<g id="Layer_18">
</g>
<g id="Layer_17">
</g>
<g id="Layer_19">
</g>
<g id="Layer_4">
</g>
<g id="Layer_16">
</g>
<g id="Layer_15">
</g>
<g id="Layer_14">
</g>
<g id="Layer_5">
</g>
</svg>
