<?xml version="1.0" encoding="UTF-8"?>
<svg id="Wood_Character" xmlns="http://www.w3.org/2000/svg" viewBox="0 0 200 200">
  <defs>
    <style>
      .cls-1 {
        fill: #fbead9;
      }

      .cls-2 {
        fill: #cc9752;
      }

      .cls-3 {
        fill: #966f33;
      }

      .cls-4 {
        fill: none;
        stroke-miterlimit: 10;
      }

      .cls-4, .cls-5 {
        stroke: #000;
      }

      .cls-5 {
        stroke-linecap: round;
        stroke-linejoin: round;
      }
    </style>
  </defs>
  <path class="cls-2" d="m136.6,180.07c6.53,0,10.22-2.5,10.22-10.34s0-89.58,0-94.34c0-4.75-1.54-4.4-2.85-6.18s-13.78-13.43-16.51-17.35-5.23-3.56-7.13-3.68-19.49-.83-19.49-.83c0,0-17.59.71-19.49.83s-4.4-.24-7.13,3.68-15.21,15.56-16.51,17.35-2.85,1.43-2.85,6.18v94.34c0,7.84,3.68,10.34,10.22,10.34s65,0,71.53,0Z"/>
  <path class="cls-3" d="m68.58,58.34c-.95.79-13.42,12.43-13.57,14.51s0,93.97,0,98.08,1.62,9.14,8.75,9.14h74.49c3.33,0,8.56-2.14,8.56-8.2v-98.02c0-1.9-1.92-3.8-3.92-5.83s-12.63-12.63-14.04-14.39-3.37-6.32-10.29-5.65c.66,1.88,1.06,3.07.72,4.16,2.71.46,3.44-.28,7.87,5.37s14.23,14.2,15.27,16.47,1.05,2.28,1.05,11.87v82.54c0,2.53-2.1,5.66-7.32,6.35s-72.09-.21-72.09-.21c0,0-5.1-.53-5.1-6.31s.04-93.46.04-93.46c0,0,4.54-8.09,6.61-11.03s2.96-5.39,2.96-5.39Z"/>
  <path class="cls-4" d="m74.21,51.87s-15.24,20.18-15.24,23.23v91.82c0,3.82,1.46,7.58,6.27,7.75s66.8,0,69.89,0,8.35-1.89,8.35-6.7v-91.47c0-3.38-10.67-12.6-13.14-15.06s-5.22-6.44-6.14-7.59-3.46-1.69-5.76-1.74"/>
  <path class="cls-5" d="m109.18,102.72c-3.1.34-7.5.58-11.57.58-.15,1.69-.29,3.58-.29,4.5,0,7.75,5.13,8.37,9.63,8.37,7.6,0,11.38-2.18,11.38-6.63,0-2.52-1.36-5.66-3.97-8.91.92-.29,2.32-.82,3.1-1.21,2.95,3.82,4.45,7.5,4.45,10.65,0,8.13-9.1,9.34-14.96,9.34-4.65,0-12.97-.34-12.97-11.62,0-2.18.19-3.78.29-4.6-4.07-.15-10.6-.39-10.6-5.37,0-2.18,1.26-4.21,4.11-6.24l2.57,1.5c-2.13,1.31-3.39,2.9-3.39,4.21,0,2.57,3.87,2.66,7.55,2.76.34-3.24.77-7.07,1.21-10.84-3.49-.39-7.5-1.36-10.17-2.66l.87-3.15c2.66,1.26,6.05,2.18,9.68,2.61.39-3.05.73-6.15,1.06-8.71l5.03.63c-.15.58-.68.92-1.55.97-.34,2.03-.73,4.7-1.11,7.45,1.4.1,2.9.15,4.45.15,1.84,0,3.73-.05,5.47-.19l-.15,3.2c-1.45.1-3.1.15-4.74.15-1.89,0-3.78-.05-5.47-.15-.48,3.63-.92,7.36-1.26,10.65,3.82,0,8.08-.24,11.28-.68l.05,3.24Z"/>
  <path class="cls-5" d="m92.36,125c-.1.58-.53.92-1.5,1.06-.39,5.62-.87,18.44-.87,25.61s3.58,10.7,9.68,10.7,11.91-2.95,17.43-9.2c.48.77,1.6,2.32,2.18,2.86-5.66,6.44-12.54,9.83-19.65,9.83-8.81,0-13.31-5.08-13.31-14.23,0-6.1.44-21.11.77-27.06l5.28.44Zm13.12,5.08c2.28,1.74,5.08,4.65,6.58,6.68l-1.79,1.5c-1.45-2.08-4.41-5.08-6.49-6.68l1.69-1.5Zm5.91-4.41c2.32,1.74,5.18,4.6,6.63,6.58l-1.84,1.55c-1.31-1.94-4.16-4.89-6.44-6.63l1.65-1.5Z"/>
  <path class="cls-4" d="m136.6,180.07c6.53,0,10.22-2.5,10.22-10.34s0-89.58,0-94.34c0-4.75-1.54-4.4-2.85-6.18s-13.78-13.43-16.51-17.35-5.23-3.56-7.13-3.68-19.49-.83-19.49-.83c0,0-17.59.71-19.49.83s-4.4-.24-7.13,3.68-15.21,15.56-16.51,17.35-2.85,1.43-2.85,6.18v94.34c0,7.84,3.68,10.34,10.22,10.34s65,0,71.53,0Z"/>
  <path class="cls-4" d="m55.14,172.63s1.76-2.75,3.88-3.38"/>
  <path class="cls-4" d="m60.27,179.72s-.47-4.97,1.63-6.09"/>
  <path class="cls-4" d="m146.58,172.86s-1.53-2.98-3.64-3.61"/>
  <path class="cls-4" d="m141.16,179.71s.47-4.97-1.63-6.09"/>
  <path class="cls-4" d="m143.4,75.95s.23-4.13,2.85-4.51"/>
  <path class="cls-4" d="m55.24,72.22s3.24-.76,3.77,2.54"/>
  <path class="cls-1" d="m98.27,43.32c2.74,1.77,6.51-12.44,13.17-17.9s18.93-5.86,25.03-5.78,11.72-2.53,14.89-2.69-1.27-4.12-2.85-4.67-6.18,1.5-8.79,2.06-5.07.16-14.26.79-12.75,3.64-19.8,8.87-11.61,19.81-11.61,19.81c0,0,3.21-1.14,4.22-.49Z"/>
  <path class="cls-1" d="m110.83,43.81c.89-4.5,13.68-8.17,24.29-9.91s16.32-2.93,21.47-4.87,13.7-9.62,15.21-11.44-2.61-4.28-4.2-4.44-3.49,2.69-7.05,7.45-15.05,6.73-26.61,8.4-20.36,5.07-24,7.6-4.28,7.53-4.28,7.53l5.17-.31Z"/>
  <path class="cls-4" d="m94.05,43.81s4.56-14.59,11.61-19.81,10.61-8.24,19.8-8.87,11.64-.24,14.26-.79,7.21-2.61,8.79-2.06,6.02,4.51,2.85,4.67-8.79,2.77-14.89,2.69-18.38.32-25.03,5.78-10.02,17.03-13.17,17.9"/>
  <path class="cls-4" d="m105.66,44.12s.63-5,4.28-7.53,12.44-5.94,24-7.6,23.05-3.64,26.61-8.4,5.47-7.6,7.05-7.45,5.7,2.61,4.2,4.44-10.06,9.5-15.21,11.44-10.85,3.13-21.47,4.87-23.4,5.41-24.29,9.91"/>
  <path class="cls-4" d="m96.4,37.66s4.93-.04,5.72.97"/>
  <path class="cls-4" d="m98.96,32.43s5.34.34,5.53,1.99"/>
  <path class="cls-4" d="m101.36,28.58s5.2.09,5.42,2.16"/>
  <path class="cls-4" d="m104.88,24.62s4.9.94,4.85,2.18"/>
  <path class="cls-4" d="m109.72,20.99s3.51,2.24,3.39,3.22"/>
  <path class="cls-4" d="m114.09,18.19s3.87,1.79,3.12,4.05"/>
  <path class="cls-4" d="m119.2,16.12s3.48,2.82,2.56,4.8"/>
  <path class="cls-4" d="m124.88,15.17s2.35,3.96,1.62,4.95"/>
  <path class="cls-4" d="m130.11,14.85s2.56,3.31,1.79,4.84"/>
  <path class="cls-4" d="m135.52,14.85s1.84,3.84,1.66,4.78"/>
  <path class="cls-4" d="m140.28,14.2s2.17,2.11,2.24,4.77"/>
  <path class="cls-4" d="m144,13.04s3.99,2.92,3.78,4.6"/>
  <path class="cls-4" d="m107.51,39.17s4.5.77,4.73,2.43"/>
  <path class="cls-4" d="m111.42,35.67s4.58,2.14,4.66,3.5"/>
  <path class="cls-4" d="m116.78,33.24s4.08,2.18,3.78,3.9"/>
  <path class="cls-4" d="m121.68,31.61s3.38,2.28,3.2,4.47"/>
  <path class="cls-4" d="m126.65,30.33s3.25,1.95,2.94,4.62"/>
  <path class="cls-4" d="m132.04,29.27s2.8,2.44,2.37,4.92"/>
  <path class="cls-4" d="m136.66,28.58s3.02,2.12,2.78,4.66"/>
  <path class="cls-4" d="m142.1,27.7s2.45,2.41,2.75,4.47"/>
  <path class="cls-4" d="m146.82,26.78s3.1,1.53,3.56,4.17"/>
  <path class="cls-4" d="m151.95,25.45s3.64,2.32,3.88,4.22"/>
  <path class="cls-4" d="m156.69,23.58s3.98,1.92,4.03,3.23"/>
  <path class="cls-4" d="m160.55,20.59s4.3.78,4.6,2.99"/>
  <path class="cls-4" d="m163.8,16.58s4.36.88,4.91,4"/>
  <path class="cls-1" d="m117.98,47c-2.09-2.16-4.85-3.52-8.98-3.14-4.13.39-6.9-.63-8.12,4.54-1.28-.95-1.49-2.12-3.83-1.4.62-1.3,3.14-4.09-.31-3.93-1.17.06-3.64-.66-4.11,4.18-2.73,0-6.07-.66-9.2,1.63-3.13,2.29-4.38,6.65-4.32,8.37.07,1.72,1.07,6.05,3.68,7.78s4.82,3.07,8.65,2.55c3.83-.52,4.51-1.21,5.3-1.94.38,1.01,1.94,4.17,3.57,4.43s6.88.67,8.69-1.35c1.81-2.02,2.46-6.03.59-8.6,1.54-.15,6.33-1.02,8.08-3.86,1.75-2.84,2.4-7.1.31-9.26Zm-25.7,10.41c-.43.23-.29,1.59,0,3-1.46.55-2.68.38-4.03,0-1.35-.38-2.46-2.69-2.26-3.98.2-1.29,1.29-2.2,2.55-2.8,1.27-.6,3.86.34,3.86.34-.65.1-.42,2.24-.13,3.44Zm13.33,8.31c-.74.61-2.52,1.08-4.25.31-1.72-.77-.95-4.04-.95-4.04.71,1.07,2.23.86,2.99.09.23.34,1.59.8,2.42.46.64.97.53,2.57-.21,3.18Zm6.41-12.24c-.51.61-2.18,1.51-3.52,1.46-1.35-.05-1.57-.28-1.57-.28,0,0,.05-1.89-.37-2.38.24-.68.52-1.06.35-1.61,0,0,2.35-1.17,3.53-.99s2.4,1.13,2.47,1.68-.37,1.5-.88,2.12Z"/>
  <path class="cls-4" d="m100,55.62s.05-.71.94-.77,2.08-.06,2.2,1.6.48,4.93.06,5.52-1.01,1.6-2.61,0"/>
  <path class="cls-4" d="m102.79,55.62s.05-.71.94-.77,2.08-.06,2.2,1.6.48,4.93.06,5.52-1.01,1.6-2.61,0"/>
  <path class="cls-4" d="m92.92,54.25s-.95.12-1.01,1.37.36,1.96,1.25,2.02,4.57.65,7.72.42"/>
  <path class="cls-4" d="m92.28,57.25s-.31.12-.37,1.37.36,1.96,1.25,2.02,4.57.65,7.72.42"/>
  <path class="cls-4" d="m92.28,54.62s.29.7,1.42.73,7.19.33,7.19.33"/>
  <path class="cls-4" d="m100.71,54.88s.42.86.42,1.66.27,4.19.24,4.66-.33,1.17-.33,1.17"/>
  <path class="cls-4" d="m98.81,61.38s-.75,3.52-2.89,4.99-9.7,2.14-13.11-1.23-4.16-5.74-3.49-9.82,4.75-7.49,6.65-7.8,5.35-.36,6.65-.12"/>
  <path class="cls-4" d="m93.01,55.23s-.51-8.5-.03-9.77.87-1.82,2.3-2.14,2.1-.36,2.99,0,0,1.6-.59,2.38-1.13,1.54-1.28,3.03,0,6.95,0,6.95"/>
  <path class="cls-4" d="m96.74,47.25s2.73-1.37,3.26.65c0,0-.93,1.57-.84,3.12s.27,4.59.27,4.59"/>
  <path class="cls-4" d="m92.84,51.32s-2.48-2.18-6.46-.72-4.36,4.48-3.94,7.25,3,5.2,4.51,5.5,5.08.71,6.83,0,1.87-1.32,2.2-2.23"/>
  <path class="cls-4" d="m92.92,54.25s-1.72-1.27-3.9-.82-3.35,2.37-3.11,4.21,1.97,2.85,3.04,3.09,3.33.12,3.67-.24"/>
  <path class="cls-4" d="m96.74,65.64s1.24,4.41,4.62,4.65,6.71-.15,8.37-2.72,1.01-5.66-.36-7.26"/>
  <path class="cls-4" d="m100.44,61.11s-.74,2.2-.15,3.72,2.82,2.02,3.98,1.63,3.22-1.28,1.43-4.09"/>
  <path class="cls-4" d="m106.19,57.62s5.21.08,7.47-1.94,3.01-5.82,1.11-7.17-6.38-1.82-8.12-1.31-2.54.87-2.92,1.86"/>
  <path class="cls-4" d="m99.9,48.13s5.02.73,5.7,1.09,1.9,1.31.95,2.85"/>
  <path class="cls-4" d="m99.21,51.88s6.01-.52,6.68-.16,1.98,2.9-.13,3.96"/>
  <path class="cls-4" d="m106.92,50.57s1.87-.98,3.45-.95,3.17,1.74,2.26,2.89-2.26,3.23-5.84,2.11"/>
  <path class="cls-4" d="m100.88,48.28s.18-2.26,1.84-3.33,7.52-1.31,9.66-1.03,5.86,2.22,6.5,4.79.36,6.14-1.35,7.84-3.49,2.57-5.35,3.17-4.24.48-6,0"/>
</svg>